<?xml version="1.0" encoding="UTF-8"?>
<svg width="496px" height="361px" viewBox="0 0 496 361" version="1.1" xmlns="http://www.w3.org/2000/svg" xmlns:xlink="http://www.w3.org/1999/xlink">
    <!-- Generator: sketchtool 61 (101010) - https://sketch.com -->
    <title>BBA09587-7935-41D1-BCE4-54D446D6EE7A</title>
    <desc>Created with sketchtool.</desc>
    <defs>
        <polygon id="path-1" points="0 371.005348 496 371.005348 496 0.388909091 0 0.388909091"></polygon>
    </defs>
    <g id="Page-1" stroke="none" stroke-width="1" fill="none" fill-rule="evenodd">
        <g id="Schedules-module-loading" transform="translate(-472.000000, -164.000000)">
            <g id="Group-102" transform="translate(472.000000, 164.000000)">
                <polygon id="Fill-1" fill="#ECECEC" points="0 326.938267 496 326.938267 496 326.689604 0 326.689604"></polygon>
                <polygon id="Fill-2" fill="#ECECEC" points="413.444768 342.948193 446.301792 342.948193 446.301792 342.700524 413.444768 342.700524"></polygon>
                <polygon id="Fill-3" fill="#ECECEC" points="319.946784 345.646684 328.57024 345.646684 328.57024 345.398021 319.946784 345.398021"></polygon>
                <polygon id="Fill-4" fill="#ECECEC" points="393.413312 333.71185 412.451776 333.71185 412.451776 333.464182 393.413312 333.464182"></polygon>
                <polygon id="Fill-5" fill="#ECECEC" points="52.039328 335.382866 94.886784 335.382866 94.886784 335.135198 52.039328 335.135198"></polygon>
                <polygon id="Fill-6" fill="#ECECEC" points="103.719552 335.382866 110.001888 335.382866 110.001888 335.135198 103.719552 335.135198"></polygon>
                <polygon id="Fill-7" fill="#ECECEC" points="130.419232 339.583283 223.345824 339.583283 223.345824 339.33462 130.419232 339.33462"></polygon>
                <g id="Group-101" transform="translate(0.000000, 0.605743)">
                    <path d="M43.56368,0.637771123 C40.57776,0.637771123 38.149344,3.07268021 38.149344,6.06658396 L38.149344,276.046081 C38.149344,279.039985 40.57776,281.474894 43.56368,281.474894 L235.117888,281.474894 C238.101824,281.474894 240.531232,279.039985 240.531232,276.046081 L240.531232,6.06658396 C240.531232,3.07268021 238.101824,0.637771123 235.117888,0.637771123 L43.56368,0.637771123 Z M235.117888,281.723557 L43.56368,281.723557 C40.441856,281.723557 37.901344,279.177247 37.901344,276.046081 L37.901344,6.06658396 C37.901344,2.93641283 40.441856,0.389108021 43.56368,0.389108021 L235.117888,0.389108021 C238.23872,0.389108021 240.779232,2.93641283 240.779232,6.06658396 L240.779232,276.046081 C240.779232,279.177247 238.23872,281.723557 235.117888,281.723557 L235.117888,281.723557 Z" id="Fill-8" fill="#ECECEC"></path>
                    <path d="M258.130205,0.637771123 C255.145277,0.637771123 252.716861,3.07268021 252.716861,6.06658396 L252.716861,276.046081 C252.716861,279.039985 255.145277,281.474894 258.130205,281.474894 L449.684413,281.474894 C452.669341,281.474894 455.098749,279.039985 455.098749,276.046081 L455.098749,6.06658396 C455.098749,3.07268021 452.669341,0.637771123 449.684413,0.637771123 L258.130205,0.637771123 Z M449.684413,281.723557 L258.130205,281.723557 C255.009373,281.723557 252.468861,279.177247 252.468861,276.046081 L252.468861,6.06658396 C252.468861,2.93641283 255.009373,0.389108021 258.130205,0.389108021 L449.684413,0.389108021 C452.806237,0.389108021 455.346749,2.93641283 455.346749,6.06658396 L455.346749,276.046081 C455.346749,279.177247 452.806237,281.723557 449.684413,281.723557 L449.684413,281.723557 Z" id="Fill-10" fill="#ECECEC"></path>
                    <mask id="mask-2" fill="white">
                        <use xlink:href="#path-1"></use>
                    </mask>
                    <g id="Clip-13"></g>
                    <polygon id="Fill-12" fill="#E7E7E7" mask="url(#mask-2)" points="66.262624 326.083861 200.876032 326.083861 200.876032 40.8294866 66.262624 40.8294866"></polygon>
                    <polygon id="Fill-14" fill="#F5F5F5" mask="url(#mask-2)" points="63.270752 326.083861 197.88416 326.083861 197.88416 40.8294866 63.270752 40.8294866"></polygon>
                    <polygon id="Fill-15" fill="#FAFAFA" mask="url(#mask-2)" points="68.640448 320.03538 192.514464 320.03538 192.514464 46.8769733 68.640448 46.8769733"></polygon>
                    <polygon id="Fill-16" fill="#FFFFFF" mask="url(#mask-2)" points="163.985139 320.036275 132.605203 46.8778684 97.1699712 46.8778684 128.550899 320.036275"></polygon>
                    <polygon id="Fill-17" fill="#E7E7E7" mask="url(#mask-2)" points="68.640448 320.03538 70.902208 320.03538 70.902208 46.8769733 68.640448 46.8769733"></polygon>
                    <polygon id="Fill-18" fill="#F5F5F5" mask="url(#mask-2)" points="65.49184 78.6561176 195.663072 78.6561176 195.663072 70.5367701 65.49184 70.5367701"></polygon>
                    <polygon id="Fill-19" fill="#F0F0F0" mask="url(#mask-2)" points="217.681504 326.083861 272.032192 326.083861 272.032192 160.573701 217.681504 160.573701"></polygon>
                    <polygon id="Fill-20" fill="#F5F5F5" mask="url(#mask-2)" points="220.66544 213.923872 269.049248 213.923872 269.049248 165.410695 220.66544 165.410695"></polygon>
                    <polygon id="Fill-21" fill="#F5F5F5" mask="url(#mask-2)" points="220.66544 266.792631 269.049248 266.792631 269.049248 218.279455 220.66544 218.279455"></polygon>
                    <polygon id="Fill-22" fill="#F5F5F5" mask="url(#mask-2)" points="220.66544 319.660396 269.049248 319.660396 269.049248 271.147219 220.66544 271.147219"></polygon>
                    <path d="M255.565984,164.769045 L255.565984,164.769045 L234.147712,164.769045 C234.147712,167.547109 236.3936,169.799002 239.165248,169.799002 L250.54944,169.799002 C253.320096,169.799002 255.565984,167.547109 255.565984,164.769045" id="Fill-23" fill="#E7E7E7" mask="url(#mask-2)"></path>
                    <path d="M255.565984,217.637108 L255.565984,217.637108 L234.147712,217.637108 C234.147712,220.415172 236.3936,222.667065 239.165248,222.667065 L250.54944,222.667065 C253.320096,222.667065 255.565984,220.415172 255.565984,217.637108" id="Fill-24" fill="#E7E7E7" mask="url(#mask-2)"></path>
                    <path d="M255.565984,270.505271 L255.565984,270.505271 L234.147712,270.505271 C234.147712,273.283335 236.3936,275.535228 239.165248,275.535228 L250.54944,275.535228 C253.320096,275.535228 255.565984,273.283335 255.565984,270.505271" id="Fill-25" fill="#E7E7E7" mask="url(#mask-2)"></path>
                    <polygon id="Fill-26" fill="#F5F5F5" mask="url(#mask-2)" points="272.032192 326.083861 299.178272 326.083861 299.178272 160.573701 272.032192 160.573701"></polygon>
                    <polygon id="Fill-27" fill="#F0F0F0" mask="url(#mask-2)" points="417.124096 322.017722 432.193568 322.017722 432.193568 197.412642 417.124096 197.412642"></polygon>
                    <polygon id="Fill-28" fill="#F0F0F0" mask="url(#mask-2)" points="285.41328 326.083861 430.105408 326.083861 430.105408 322.017722 285.41328 322.017722"></polygon>
                    <polygon id="Fill-29" fill="#FAFAFA" mask="url(#mask-2)" points="283.32512 322.017722 417.124096 322.017722 417.124096 197.412642 283.32512 197.412642"></polygon>
                    <path d="M390.928848,242.137287 C398.383728,242.137287 404.448816,248.218591 404.448816,255.69241 C404.448816,263.167222 398.383728,269.248527 390.928848,269.248527 L309.52136,269.248527 C302.06648,269.248527 296.001392,263.167222 296.001392,255.69241 C296.001392,248.218591 302.06648,242.137287 309.52136,242.137287 L390.928848,242.137287 Z M309.52136,270.224281 L390.928848,270.224281 C398.9204,270.224281 405.420976,263.705329 405.420976,255.69241 C405.420976,247.680484 398.9204,241.161533 390.928848,241.161533 L309.52136,241.161533 C301.529808,241.161533 295.02824,247.680484 295.02824,255.69241 C295.02824,263.705329 301.529808,270.224281 309.52136,270.224281 L309.52136,270.224281 Z" id="Fill-30" fill="#F0F0F0" mask="url(#mask-2)"></path>
                    <path d="M390.928848,278.289122 C398.383728,278.289122 404.448816,284.370427 404.448816,291.844245 C404.448816,299.319058 398.383728,305.400363 390.928848,305.400363 L309.52136,305.400363 C302.06648,305.400363 296.001392,299.319058 296.001392,291.844245 C296.001392,284.370427 302.06648,278.289122 309.52136,278.289122 L390.928848,278.289122 Z M309.52136,306.376117 L390.928848,306.376117 C398.9204,306.376117 405.420976,299.857165 405.420976,291.844245 C405.420976,283.83232 398.9204,277.313368 390.928848,277.313368 L309.52136,277.313368 C301.529808,277.313368 295.02824,283.83232 295.02824,291.844245 C295.02824,299.857165 301.529808,306.376117 309.52136,306.376117 L309.52136,306.376117 Z" id="Fill-31" fill="#F0F0F0" mask="url(#mask-2)"></path>
                    <path d="M337.941168,252.558757 L362.50904,252.558757 C364.171632,252.558757 365.532656,251.194094 365.532656,249.527057 C365.532656,247.859025 364.171632,246.495356 362.50904,246.495356 L337.941168,246.495356 C336.278576,246.495356 334.917552,247.859025 334.917552,249.527057 C334.917552,251.194094 336.278576,252.558757 337.941168,252.558757" id="Fill-32" fill="#ECECEC" mask="url(#mask-2)"></path>
                    <path d="M390.928848,205.985451 C398.383728,205.985451 404.448816,212.066756 404.448816,219.540574 C404.448816,227.015387 398.383728,233.096692 390.928848,233.096692 L309.52136,233.096692 C302.06648,233.096692 296.001392,227.015387 296.001392,219.540574 C296.001392,212.066756 302.06648,205.985451 309.52136,205.985451 L390.928848,205.985451 Z M309.52136,234.072446 L390.928848,234.072446 C398.9204,234.072446 405.420976,227.553494 405.420976,219.540574 C405.420976,211.528649 398.9204,205.009697 390.928848,205.009697 L309.52136,205.009697 C301.529808,205.009697 295.02824,211.528649 295.02824,219.540574 C295.02824,227.553494 301.529808,234.072446 309.52136,234.072446 L309.52136,234.072446 Z" id="Fill-33" fill="#F0F0F0" mask="url(#mask-2)"></path>
                    <path d="M337.941168,216.406922 L362.50904,216.406922 C364.171632,216.406922 365.532656,215.042259 365.532656,213.375221 C365.532656,211.707189 364.171632,210.343521 362.50904,210.343521 L337.941168,210.343521 C336.278576,210.343521 334.917552,211.707189 334.917552,213.375221 C334.917552,215.042259 336.278576,216.406922 337.941168,216.406922" id="Fill-34" fill="#ECECEC" mask="url(#mask-2)"></path>
                    <path d="M337.941168,288.710593 L362.50904,288.710593 C364.171632,288.710593 365.532656,287.345929 365.532656,285.678892 C365.532656,284.01086 364.171632,282.647191 362.50904,282.647191 L337.941168,282.647191 C336.278576,282.647191 334.917552,284.01086 334.917552,285.678892 C334.917552,287.345929 336.278576,288.710593 337.941168,288.710593" id="Fill-35" fill="#ECECEC" mask="url(#mask-2)"></path>
                    <polygon id="Fill-36" fill="#F0F0F0" mask="url(#mask-2)" points="280.573312 197.411647 417.124096 197.411647 417.124096 191.077701 280.573312 191.077701"></polygon>
                    <polygon id="Fill-37" fill="#E7E7E7" mask="url(#mask-2)" points="417.125088 197.411647 435.146752 197.411647 435.146752 191.077701 417.125088 191.077701"></polygon>
                    <path d="M319.448701,91.3352503 C322.491165,92.8660203 330.744605,91.2218599 327.993789,96.8217529 C326.700221,99.4545979 324.595197,102.264491 322.353277,105.037582 C319.280061,108.838149 319.860381,112.960983 323.489117,114.458929 C324.370013,114.821978 325.089213,115.272555 325.495933,115.857411 C327.167453,118.259496 323.219293,121.48217 321.280925,123.888234 C319.408029,126.212737 318.559869,128.662566 319.993309,130.453935 C321.575549,132.430309 324.870973,131.703218 327.487869,132.301004 C333.783101,133.736288 327.309309,142.440491 327.977917,146.912448 C328.435229,149.973988 330.911261,150.8274 334.275133,151.260074 C337.019997,151.613175 340.682461,151.859849 340.835229,154.680683 C340.967165,157.12156 337.796733,159.888683 336.965437,162.454887 C336.156957,164.94848 336.432733,167.371453 337.574525,169.216534 C338.596285,170.865667 340.282685,171.981667 342.514685,172.458106 C345.632541,173.122534 350.348509,172.43324 350.572701,175.959282 C350.672893,177.534812 349.578717,178.92832 350.339581,180.378523 C350.981405,181.60294 352.440637,182.222609 353.998077,182.534929 C356.502877,183.038224 360.113757,182.902951 362.984605,182.37479 C366.644093,181.7034 372.046525,178.46879 370.061533,175.35155 C369.505021,174.47725 368.432669,173.967988 367.231357,173.722309 C366.353437,173.542277 363.797053,173.82078 363.467709,173.225978 C363.138365,172.629186 364.021245,170.337507 364.057949,169.502994 C364.166077,167.105881 363.737533,164.852994 362.992541,162.773175 C361.978717,159.950352 360.377629,157.413988 358.267645,155.270512 C357.402621,154.39124 356.015805,153.744716 355.839229,152.462609 C355.670589,151.238191 356.467165,149.763122 357.355997,148.50986 C358.756701,146.535475 360.926205,144.64663 361.711869,142.531004 C362.945917,139.207871 359.956029,138.153539 357.188349,137.398598 C354.686525,136.716266 351.394077,135.837988 352.243229,132.792363 C352.857277,130.592191 355.621981,128.791871 356.450301,126.6474 C357.561341,123.768876 354.852189,123.65648 352.908861,122.62801 C350.388189,121.294181 349.751325,118.912983 350.665949,115.893218 C352.174781,110.916972 361.273405,103.892737 356.615965,100.658127 C355.433501,99.8355497 354.336349,99.560031 353.625085,98.3246727 C352.864221,97.004769 352.753117,95.3606086 351.764093,94.1620524 C350.195741,92.260277 346.954877,91.9409936 345.261533,90.1764802 C341.786557,86.5569401 349.292029,80.1354642 342.441277,78.6086727 C340.875901,78.2595497 339.488093,77.9283305 338.439549,76.9485979 C337.811613,76.3617529 337.304701,73.5240096 336.596413,73.3260738 C333.454749,72.4468011 327.784477,78.5629187 326.003837,80.450769 C323.838301,82.7474214 315.815005,89.5070791 319.448701,91.3352503" id="Fill-38" fill="#E1E1E1" mask="url(#mask-2)"></path>
                    <path d="M373.376598,175.699976 C371.508662,172.237591 363.349462,168.779185 368.765782,164.7588 C371.312246,162.86896 374.670166,161.302383 378.12927,159.859142 C382.869046,157.880779 384.558422,153.298415 382.155798,149.504811 C381.572502,148.583763 381.178678,147.67465 381.131062,146.822233 C380.939606,143.321057 386.143638,142.480575 389.137494,141.223335 C392.031158,140.009859 394.086582,138.029506 393.77807,135.302169 C393.437814,132.293345 390.141398,130.983388 388.152438,128.743431 C383.363062,123.35142 393.722518,118.470661 395.520022,113.473527 C396.750102,110.053912 395.021046,107.637902 392.284118,105.099549 C390.051126,103.028682 386.951126,100.494308 388.32207,97.5113455 C389.508502,94.9292278 393.78303,94.0698481 395.887062,91.961185 C397.931574,89.9102118 398.982102,87.2584684 398.95869,84.6564578 C398.937462,82.3319551 398.045654,80.1387465 396.329494,78.2608428 C393.933814,75.6379444 389.405334,73.406939 391.08975,69.6561048 C391.842678,67.9811102 393.551894,67.2341262 393.65407,65.2756556 C393.741366,63.6215487 392.784086,62.0788428 391.576822,60.7887786 C389.63647,58.7139337 386.37775,56.6032813 383.563446,55.3549925 C379.975382,53.7635487 373.48175,53.7098374 373.569046,58.1390246 C373.592854,59.3813455 374.267414,60.5699551 375.195926,61.5705754 C375.875446,62.3016449 378.280054,63.6086182 378.252278,64.4232385 C378.224502,65.2388535 376.222646,67.0361904 375.74351,67.8677198 C374.368598,70.2558802 373.544246,72.829046 373.092886,75.4230995 C372.47983,78.9451636 372.537366,82.5398374 373.255574,86.0489711 C373.549206,87.4882332 374.428118,89.0140299 373.899382,90.4373775 C373.395446,91.7960727 371.90447,92.8106182 370.45119,93.5396984 C368.160662,94.6895166 365.23823,95.2723829 363.415926,96.9493668 C360.553014,99.5832064 362.628278,102.525388 364.666838,105.021966 C366.510966,107.279827 368.947318,110.229966 366.571478,112.820041 C364.855318,114.690982 361.454742,114.812329 359.57887,116.492297 C357.062166,118.747174 359.392374,120.550479 360.557974,122.814308 C362.070774,125.750522 361.361494,128.584287 358.942006,131.106725 C354.954166,135.263378 343.177142,136.78818 345.558934,143.002768 C346.164054,144.581281 346.984438,145.547089 346.952694,147.254907 C346.919958,149.081089 346.139254,150.833666 346.372374,152.676757 C346.741398,155.601035 349.43071,157.946426 349.982262,160.809035 C351.116118,166.679474 341.065174,168.57926 346.294998,174.411902 C347.490358,175.743741 348.53791,176.947271 348.940662,178.603367 C349.180726,179.595035 348.113334,182.817709 348.633142,183.461249 C350.935574,186.317891 359.203894,183.586575 361.782102,182.763003 C364.919798,181.760394 375.607606,179.835741 373.376598,175.699976" id="Fill-39" fill="#F5F5F5" mask="url(#mask-2)"></path>
                    <path d="M394.28895,167.880716 C394.28895,167.880716 393.300918,191.077999 355.424374,191.077999 C317.548822,191.077999 316.56079,167.880716 316.56079,167.880716 L394.28895,167.880716 Z" id="Fill-40" fill="#F0F0F0" mask="url(#mask-2)"></path>
                    <g id="Group-44" mask="url(#mask-2)" fill="#F7E8E8">
                        <g transform="translate(231.136000, 153.176471)" id="Combined-Shape">
                            <path d="M126.707168,0.157950802 L73.262208,99.1979508 L126.707168,198.238502 L0.346208,198.238502 L53.790208,99.1979508 L0.346208,0.157950802 L126.707168,0.157950802 Z"></path>
                        </g>
                    </g>
                    <path d="M306.235459,222.458387 L296.991011,239.591275 C295.989091,241.446302 293.335491,241.446302 292.333571,239.591275 L283.089123,222.458387 C279.441539,215.699724 284.323171,207.486879 291.987363,207.486879 L297.337219,207.486879 C305.001411,207.486879 309.883043,215.699724 306.235459,222.458387" id="Fill-45" fill="#E84C51" mask="url(#mask-2)"></path>
                    <path d="M295.669766,321.85808 L324.349478,333.690465 C327.030854,334.797513 326.242214,338.799995 323.342598,338.799995 L265.984166,338.799995 C263.083558,338.799995 262.293926,334.797513 264.976294,333.69146 L293.655014,321.85808 C294.300806,321.591513 295.024966,321.591513 295.669766,321.85808" id="Fill-46" fill="#E84C51" mask="url(#mask-2)"></path>
                    <path d="M298.340131,295.644513 C298.340131,297.680567 296.693411,299.332684 294.661795,299.332684 C292.631171,299.332684 290.984451,297.680567 290.984451,295.644513 C290.984451,293.607465 292.631171,291.956342 294.661795,291.956342 C296.693411,291.956342 298.340131,293.607465 298.340131,295.644513" id="Fill-47" fill="#E84C51" mask="url(#mask-2)"></path>
                    <path d="M296.558102,257.105612 C296.558102,258.155965 295.709942,259.006393 294.66239,259.006393 C293.614838,259.006393 292.766678,258.155965 292.766678,257.105612 C292.766678,256.055259 293.614838,255.204831 294.66239,255.204831 C295.709942,255.204831 296.558102,256.055259 296.558102,257.105612" id="Fill-48" fill="#E84C51" mask="url(#mask-2)"></path>
                    <path d="M296.817709,275.481417 C296.817709,276.675 295.852493,277.642797 294.662093,277.642797 C293.471693,277.642797 292.506477,276.675 292.506477,275.481417 C292.506477,274.287834 293.471693,273.320037 294.662093,273.320037 C295.852493,273.320037 296.817709,274.287834 296.817709,275.481417" id="Fill-49" fill="#E84C51" mask="url(#mask-2)"></path>
                    <path d="M357.52295,345.644695 L231.802822,345.644695 C228.63735,345.644695 226.047238,348.240738 226.047238,351.414674 C226.047238,354.58861 228.63735,357.185647 231.802822,357.185647 L357.52295,357.185647 C360.688422,357.185647 363.277542,354.58861 363.277542,351.414674 C363.277542,348.240738 360.688422,345.644695 357.52295,345.644695" id="Fill-50" fill="#E84C51" mask="url(#mask-2)"></path>
                    <path d="M357.52295,147.563647 L231.802822,147.563647 C228.63735,147.563647 226.047238,150.160684 226.047238,153.33462 C226.047238,156.508556 228.63735,159.104599 231.802822,159.104599 L357.52295,159.104599 C360.688422,159.104599 363.277542,156.508556 363.277542,153.33462 C363.277542,150.160684 360.688422,147.563647 357.52295,147.563647" id="Fill-51" fill="#E84C51" mask="url(#mask-2)"></path>
                    <polygon id="Fill-52" fill="#FF8C7B" mask="url(#mask-2)" points="193.070381 349.237678 186.075789 346.960919 190.423725 330.422833 197.419309 332.699593"></polygon>
                    <path d="M185.97143,346.030322 L193.830054,348.587573 C194.11575,348.680076 194.267526,348.949627 194.194118,349.235092 L192.557318,355.59291 C192.387686,356.252365 191.584166,356.668129 190.929446,356.442343 C188.20839,355.504386 186.95351,354.918536 183.497382,353.793584 C181.371526,353.101306 174.363046,351.286065 171.427718,350.331199 C168.555878,349.396226 169.517126,346.491841 170.846406,346.633081 C176.809318,347.266675 182.148262,346.982204 184.62727,346.069113 C185.074662,345.904996 185.553798,345.894055 185.97143,346.030322" id="Fill-53" fill="#1A2E35" mask="url(#mask-2)"></path>
                    <polygon id="Fill-54" fill="#000000" mask="url(#mask-2)" points="197.419606 332.704566 190.421046 330.426812 188.183094 338.952972 195.181654 341.230726"></polygon>
                    <path d="M216.530189,165.271742 C216.530189,165.271742 203.980397,223.507646 201.037133,244.446074 C197.814125,267.375796 185.705773,336.225635 185.705773,336.225635 L198.689069,339.821304 C198.689069,339.821304 216.680973,273.047304 221.936589,250.757143 C227.640589,226.565207 242.813229,165.271742 242.813229,165.271742 L216.530189,165.271742 Z" id="Fill-55" fill="#E84C51" mask="url(#mask-2)"></path>
                    <path d="M232.050029,184.367278 C227.099949,195.646636 224.639789,220.214551 226.564269,231.46407 C230.075949,216.991877 234.301869,199.78439 237.565549,186.545567 C236.464429,182.706209 234.639149,178.468989 232.050029,184.367278" id="Fill-56" fill="#000000" mask="url(#mask-2)"></path>
                    <polygon id="Fill-57" fill="#1A2E35" mask="url(#mask-2)" points="199.017619 340.078024 185.110771 336.236676 185.379603 330.557211 201.037331 335.986024"></polygon>
                    <path d="M184.670422,346.417938 C183.338166,346.260783 182.429494,345.921606 182.208278,345.489927 C182.116022,345.31089 182.13983,345.107981 182.281686,344.86827 C182.347158,344.758858 182.42751,344.704152 182.535638,344.698184 C183.054454,344.666355 184.026614,345.636141 184.670422,346.417938 M183.09711,346.444794 C183.742902,346.65566 184.50079,346.75413 185.042422,346.800879 C185.108886,346.806847 185.173366,346.772034 185.206102,346.712355 C185.238838,346.652676 185.233878,346.580066 185.193206,346.526355 C185.019606,346.297585 183.47903,344.296344 182.515798,344.355029 C182.292598,344.367959 182.109078,344.485328 181.98607,344.694205 C181.783702,345.038355 181.755926,345.359628 181.903734,345.648077 C182.092214,346.014109 182.554486,346.26874 183.09711,346.444794" id="Fill-58" fill="#1A2E35" mask="url(#mask-2)"></path>
                    <path d="M184.967824,343.639376 C185.103728,343.683141 185.202928,343.767687 185.271376,343.896991 C185.562032,344.440072 185.244592,345.613761 185.009488,346.274211 C184.568048,345.561045 184.233744,344.222243 184.502576,343.755751 C184.553168,343.666232 184.64344,343.570745 184.890448,343.618489 C184.917232,343.624457 184.944016,343.631419 184.967824,343.639376 M185.003536,346.792425 C185.029328,346.801376 185.057104,346.803366 185.083888,346.799387 C185.142416,346.789441 185.192016,346.750649 185.214832,346.695943 C185.24856,346.613387 186.059024,344.646959 185.573936,343.734863 C185.442992,343.489184 185.235664,343.337002 184.956912,343.282296 C184.621616,343.216649 184.354768,343.324072 184.204976,343.584671 C183.796272,344.296842 184.36568,346.100147 184.927152,346.743687 C184.947984,346.767558 184.974768,346.783473 185.003536,346.792425" id="Fill-59" fill="#1A2E35" mask="url(#mask-2)"></path>
                    <path d="M229.885386,109.981999 C229.504458,110.871218 229.193962,111.545593 228.84081,112.305507 C228.49361,113.04155 228.123594,113.759689 227.756554,114.477828 C227.016522,115.911122 226.24673,117.322534 225.444202,118.721015 C223.817322,121.504052 222.066442,124.232384 220.08641,126.853293 C218.123242,129.486138 215.962666,132.032448 213.48465,134.410662 C211.026474,136.797828 208.209194,139.011924 204.878058,140.787379 L204.629066,140.920662 C204.228298,141.133518 203.786858,141.289678 203.364266,141.382181 C200.974538,141.894427 198.55009,141.70047 196.548234,141.108651 C194.526538,140.523796 192.83617,139.641539 191.347178,138.687667 C188.384074,136.757047 186.16993,134.471336 184.16113,132.158769 C182.186058,129.816363 180.47585,127.386427 178.940234,124.882887 C177.404618,122.355475 176.048554,119.860887 174.838314,117.083817 C174.128042,115.452587 174.870058,113.553796 176.496938,112.841625 C177.843082,112.250801 179.373738,112.660598 180.263562,113.744769 L180.360778,113.864127 C181.999562,115.863379 183.77425,117.97602 185.560842,119.906641 C187.354378,121.85417 189.198506,123.716159 191.10017,125.35833 C192.97505,127.009453 194.967978,128.43479 196.79425,129.33694 C197.70193,129.780555 198.56497,130.060052 199.23953,130.146587 C199.925002,130.230138 200.352554,130.165486 200.669002,130.02524 L199.156202,130.621036 C201.073738,129.374737 202.947626,127.67786 204.722314,125.74724 C206.489066,123.805678 208.155626,121.637336 209.72993,119.356598 C211.296298,117.068897 212.78033,114.667806 214.185002,112.208031 C214.892298,110.98063 215.576778,109.73433 216.228522,108.47709 L217.186794,106.590234 C217.494314,105.98847 217.836554,105.296191 218.069674,104.800855 L218.13217,104.66956 C219.653898,101.441913 223.497898,100.06233 226.716938,101.589122 C229.860586,103.080106 231.240458,106.802095 229.885386,109.981999" id="Fill-60" fill="#1A2E35" mask="url(#mask-2)"></path>
                    <path d="M213.668963,123.487091 C216.783843,115.19169 223.400483,115.052439 226.267363,117.25062 C226.059043,117.638535 225.840803,118.026449 225.622563,118.414364 C224.075043,121.109872 222.378723,123.735754 220.513763,126.282064 C218.648803,128.818428 216.605283,131.295112 214.293923,133.622599 C213.579683,134.328802 212.845603,135.025059 212.081763,135.701422 C211.923043,131.792439 212.220643,127.366235 213.668963,123.487091" id="Fill-61" fill="#000000" mask="url(#mask-2)"></path>
                    <path d="M174.569283,117.600241 L168.124259,117.830005 L169.736259,110.927118 C169.736259,110.927118 173.572323,111.083278 176.310243,111.884968 C177.969859,112.370358 178.647395,114.36961 177.704003,115.820807 L177.700035,115.826775 C177.006627,116.893043 175.839043,117.555481 174.569283,117.600241" id="Fill-62" fill="#FF8C7B" mask="url(#mask-2)"></path>
                    <path d="M178.202086,111.753276 C177.669382,111.327565 176.972998,110.92473 176.074246,110.65319 C175.53063,113.474025 172.141958,118.247361 172.141958,118.247361 L174.827302,118.247361 C175.53063,118.247361 176.198246,117.934046 176.649606,117.39196 L178.530438,115.133105 C179.380582,114.111597 179.239718,112.582816 178.202086,111.753276" id="Fill-63" fill="#E84C51" mask="url(#mask-2)"></path>
                    <polygon id="Fill-64" fill="#FF8C7B" mask="url(#mask-2)" points="163.200963 114.654677 165.014339 109.778891 169.736259 110.92672 168.124259 117.829607"></polygon>
                    <polygon id="Fill-65" fill="#FF8C7B" mask="url(#mask-2)" points="244.28 352.464032 236.925312 352.464032 236.672352 335.38784 244.026048 335.38784"></polygon>
                    <path d="M236.540218,351.610222 L244.802586,351.610222 C245.103162,351.610222 245.329338,351.820094 245.347194,352.113517 L245.747962,358.668276 C245.789626,359.348618 245.153754,359.992158 244.461338,359.980222 C241.584538,359.93049 240.210618,359.760404 236.576922,359.760404 C234.341946,359.760404 226.86921,359.993153 223.783098,359.993153 C220.76345,359.993153 220.784282,356.932607 222.09273,356.656094 C227.958426,355.412779 233.197178,353.698993 235.273434,352.063784 C235.64841,351.769367 236.100762,351.610222 236.540218,351.610222" id="Fill-66" fill="#1A2E35" mask="url(#mask-2)"></path>
                    <polygon id="Fill-67" fill="#000000" mask="url(#mask-2)" points="244.027635 335.392216 236.669971 335.392216 236.804883 344.19489 244.162547 344.19489"></polygon>
                    <path d="M230.877782,165.271742 C230.877782,165.271742 228.06943,229.339293 229.261814,250.45079 C230.568278,273.569496 233.311158,342.070213 233.311158,342.070213 L246.781526,342.070213 C246.781526,342.070213 250.177142,275.436459 250.988598,252.546523 C251.869494,227.70309 255.863286,165.271742 255.863286,165.271742 L230.877782,165.271742 Z" id="Fill-68" fill="#E84C51" mask="url(#mask-2)"></path>
                    <polygon id="Fill-69" fill="#1A2E35" mask="url(#mask-2)" points="247.323853 342.069716 232.768237 342.069716 231.659181 336.641897 247.724621 337.443587"></polygon>
                    <path d="M235.422234,352.381973 C234.106842,352.645556 233.137658,352.604775 232.794426,352.26162 C232.65257,352.12038 232.611898,351.91946 232.673402,351.64792 C232.701178,351.522594 232.760698,351.446005 232.861882,351.407214 C233.345978,351.217235 234.569114,351.837898 235.422234,352.381973 M233.934234,352.895214 C234.612762,352.895214 235.364698,352.754968 235.893434,352.630636 C235.959898,352.616711 236.01049,352.563995 236.022394,352.497353 C236.03529,352.429717 236.007514,352.36208 235.951962,352.323289 C235.716858,352.160166 233.635642,350.73284 232.73689,351.086936 C232.529562,351.167503 232.391674,351.336594 232.339098,351.573321 C232.251802,351.963225 232.323226,352.277535 232.55337,352.506305 C232.845018,352.796743 233.363834,352.895214 233.934234,352.895214" id="Fill-70" fill="#1A2E35" mask="url(#mask-2)"></path>
                    <path d="M234.849254,349.646679 C234.992102,349.646679 235.113126,349.696412 235.217286,349.797866 C235.66071,350.225567 235.72023,351.440037 235.70039,352.140273 C235.061542,351.598187 234.33143,350.429471 234.442534,349.902305 C234.463366,349.801845 234.51991,349.682487 234.769894,349.651652 C234.79767,349.648668 234.824454,349.646679 234.849254,349.646679 M235.855142,352.63561 C235.881926,352.63561 235.90871,352.629642 235.93351,352.616711 C235.986086,352.588861 236.020806,352.538134 236.025766,352.478455 C236.03271,352.388936 236.197382,350.268337 235.455366,349.551193 C235.255974,349.357235 235.01095,349.277663 234.72823,349.311481 C234.389958,349.352262 234.169734,349.537267 234.107238,349.831684 C233.938598,350.635364 235.034758,352.175086 235.766854,352.611738 C235.79463,352.628647 235.82439,352.63561 235.855142,352.63561" id="Fill-71" fill="#1A2E35" mask="url(#mask-2)"></path>
                    <path d="M259.550848,105.808139 C260.015104,103.199166 258.235456,100.72646 255.621536,100.343519 L255.536224,100.330588 C253.165344,99.9824599 250.188352,99.624385 247.272864,99.4851337 C242.253344,99.2464171 234.980992,99.0872727 230.556672,99.4851337 C227.988384,99.7238503 225.477632,100.151551 223.473792,100.539465 C223.448,100.544439 223.4232,100.550406 223.397408,100.55538 C220.844,101.073594 218.787584,102.966417 218.04656,105.470952 C215.648896,113.580353 212.787968,130.130374 216.529792,165.271444 L255.863584,165.271444 C256.140352,161.750374 255.357664,150.293968 255.933024,135.700428 C256.370496,124.582203 258.343584,112.60062 259.550848,105.808139" id="Fill-72" fill="#1A2E35" mask="url(#mask-2)"></path>
                    <path d="M259.172102,107.980559 C258.355686,112.697201 257.349798,119.105747 256.65639,125.851479 C256.65639,125.851479 253.068326,118.792431 252.414598,112.750912 C251.76087,106.710388 256.892486,106.285672 259.172102,107.980559" id="Fill-73" fill="#000000" mask="url(#mask-2)"></path>
                    <g id="Group-77" mask="url(#mask-2)" fill="#FFFFFF">
                        <g transform="translate(230.144000, 98.470588)">
                            <path d="M2.646656,10.4395733 C2.511744,10.4395733 2.381792,10.365969 2.31632,10.2386535 C2.221088,10.0556374 2.293504,9.82985134 2.47504,9.73535936 L14.737152,3.36063209 C14.920672,3.26614011 15.144864,3.33676043 15.238112,3.51977647 C15.333344,3.70279251 15.26192,3.92857861 15.079392,4.02307059 L2.818272,10.3977979 C2.76272,10.4256481 2.705184,10.4395733 2.646656,10.4395733" id="Fill-74"></path>
                            <path d="M8.2634592,11.0223401 C8.1682272,11.0223401 8.0739872,10.9865326 8.0005792,10.913923 L1.2837472,4.21195508 C1.1379232,4.06673583 1.1369312,3.83100321 1.2827552,3.6847893 C1.4265952,3.5385754 1.6626912,3.53758075 1.8085152,3.68379465 L8.5263392,10.3847679 C8.6711712,10.5299872 8.6721632,10.7667144 8.5273312,10.9129283 C8.4539232,10.985538 8.3596832,11.0223401 8.2634592,11.0223401" id="Fill-75"></path>
                            <path d="M17.1236064,1.01315294 C12.1040864,0.774436364 4.8327264,0.615291979 0.4183264,1.01315294 C0.3290464,1.02309947 0.2298464,1.03304599 0.1405664,1.04299251 C-0.0181536,1.6994631 -0.1669536,2.92288556 0.5671264,4.0965754 C1.4996064,5.58855401 3.4538464,6.42406203 6.3901664,6.58320642 C6.7671264,6.60309947 7.1341664,6.61304599 7.4912864,6.61304599 C15.4768864,6.61304599 18.4925664,1.77903529 18.6215264,1.57015829 L18.8992864,1.12256471 C18.3040864,1.08277861 17.7188064,1.04299251 17.1236064,1.01315294" id="Fill-76"></path>
                        </g>
                    </g>
                    <path d="M231.351066,99.4259519 C236.211866,98.2721551 237.064986,95.2583583 236.737626,91.9461658 C236.668186,91.1404973 236.529306,90.3049893 236.350746,89.4794278 L242.441626,84.4067005 L246.915546,80.6867005 C245.675546,86.0876631 244.276826,95.9247754 247.917466,99.5254171 C247.917466,99.5254171 244.90377,104.505642 236.583866,104.056059 C229.55753,103.675107 231.351066,99.4259519 231.351066,99.4259519" id="Fill-78" fill="#FF8C7B" mask="url(#mask-2)"></path>
                    <path d="M236.35025,89.4790299 C236.52881,90.3045914 236.66769,91.1400995 236.73713,91.9457679 C239.00881,91.4882278 242.04433,89.0612759 242.36177,86.7337893 C242.48081,85.8584952 242.50065,85.0130406 242.44113,84.4063027 L236.35025,89.4790299 Z" id="Fill-79" fill="#000000" mask="url(#mask-2)"></path>
                    <path d="M233.093315,63.5966824 C229.786979,65.5442118 230.313731,70.5622332 229.414979,74.1230888 C231.522979,74.3309711 234.834275,70.5821262 234.834275,70.5821262 L236.813315,64.8817733 L233.093315,63.5966824 Z" id="Fill-80" fill="#1A2E35" mask="url(#mask-2)"></path>
                    <path d="M250.691693,73.601493 C248.578733,80.626723 247.698829,84.8341027 243.230861,87.7623594 C236.511053,92.1686695 228.459981,87.1446802 228.427042,79.7026909 C228.396493,73.003707 231.857581,62.6394289 239.516813,61.2101134 C247.062957,59.8006909 252.804653,66.5762631 250.691693,73.601493" id="Fill-81" fill="#FF8C7B" mask="url(#mask-2)"></path>
                    <path d="M244.088147,79.5620471 C249.043187,73.7920684 242.847155,70.9453733 247.917267,66.939908 C242.213267,67.2094588 232.822003,66.8016513 231.146515,62.8787422 C229.470035,58.9548385 234.627443,53.6503572 238.921811,53.153031 C243.916531,52.5741433 242.806483,58.7340257 242.806483,58.7340257 C242.806483,58.7340257 261.792371,57.545416 255.764979,65.640892 C260.332147,65.3653733 259.075283,72.7695658 251.134323,79.0139936 C249.144371,79.7321326 244.088147,79.5620471 244.088147,79.5620471" id="Fill-82" fill="#1A2E35" mask="url(#mask-2)"></path>
                    <path d="M254.628147,65.7933722 C254.628147,65.7933722 258.536627,64.6326128 258.401715,61.5243241 C259.815315,62.4980888 259.960147,65.4621529 254.628147,65.7933722" id="Fill-83" fill="#1A2E35" mask="url(#mask-2)"></path>
                    <path d="M251.848365,80.9326781 C250.586541,82.4873198 248.835661,83.4153305 247.339725,83.6888599 C245.088877,84.0986567 244.558157,82.0098866 245.682093,79.9738332 C246.693933,78.1406888 249.084653,75.7187102 251.104365,76.2319508 C253.093325,76.7362396 253.290733,79.1552342 251.848365,80.9326781" id="Fill-84" fill="#FF8C7B" mask="url(#mask-2)"></path>
                    <path d="M239.387357,73.4197701 C239.250461,73.9996524 238.831837,74.4064652 238.451901,74.3308717 C238.071965,74.2542834 237.874557,73.723139 238.010461,73.1442513 C238.147357,72.5653636 238.564989,72.1565615 238.945917,72.2331497 C239.325853,72.309738 239.523261,72.8408824 239.387357,73.4197701" id="Fill-85" fill="#1A2E35" mask="url(#mask-2)"></path>
                    <path d="M232.812381,72.1031487 C232.675485,72.683031 232.256861,73.0908385 231.876925,73.0142503 C231.496989,72.937662 231.298589,72.4065176 231.435485,71.8276299 C231.571389,71.2487422 231.990013,70.8399401 232.370941,70.9165283 C232.750877,70.9931166 232.948285,71.524261 232.812381,72.1031487" id="Fill-86" fill="#1A2E35" mask="url(#mask-2)"></path>
                    <path d="M234.834672,72.8103465 C234.834672,72.8103465 232.72568,75.8868064 230.889488,77.2077048 C231.693008,78.3694588 233.546064,78.2829241 233.546064,78.2829241 L234.834672,72.8103465 Z" id="Fill-87" fill="#FF5551" mask="url(#mask-2)"></path>
                    <path d="M235.555459,80.3192759 C237.885667,80.5032866 239.302243,79.1505594 239.366723,79.0869016 C239.435171,79.0202599 239.437155,78.9098535 239.369699,78.8402278 C239.303235,78.7706021 239.193123,78.7696075 239.123683,78.8372439 C239.107811,78.8521636 237.495811,80.3948695 234.938435,79.8806342 C234.843203,79.8607412 234.752931,79.9234043 234.734083,80.0178963 C234.715235,80.1123882 234.775747,80.2038963 234.870979,80.2227947 C235.107075,80.270538 235.335235,80.3013722 235.555459,80.3192759" id="Fill-88" fill="#1A2E35" mask="url(#mask-2)"></path>
                    <path d="M241.926381,71.816092 C241.982925,71.8200706 242.041453,71.8111187 242.097005,71.7862524 C242.272589,71.7056856 242.349965,71.4987979 242.270605,71.3227444 C241.479981,69.5860813 239.878893,69.3622845 239.811437,69.3543273 C239.633869,69.3135465 239.446381,69.463739 239.421581,69.655707 C239.397773,69.8476749 239.531693,70.021739 239.722157,70.0466053 C239.788621,70.0565519 241.015725,70.2485198 241.635725,71.6131829 C241.691277,71.7325412 241.803373,71.8061455 241.926381,71.816092" id="Fill-89" fill="#1A2E35" mask="url(#mask-2)"></path>
                    <path d="M231.183021,68.1439348 C231.289165,68.1777529 231.410189,68.1608439 231.504429,68.0872396 C232.754349,67.1114856 233.995341,67.4884588 234.008237,67.4924374 C234.191757,67.5501273 234.387181,67.4486727 234.444717,67.264662 C234.503245,67.081646 234.402061,66.8856995 234.219533,66.827015 C234.219533,66.827015 234.218541,66.8260203 234.217549,66.8260203 C234.153069,66.8061273 232.612493,66.337646 231.076877,67.5362021 C230.925101,67.6535711 230.897325,67.874384 231.015373,68.0255711 C231.060013,68.083261 231.119533,68.1230471 231.183021,68.1439348" id="Fill-90" fill="#1A2E35" mask="url(#mask-2)"></path>
                    <path d="M259.931578,102.969898 L260.76089,104.100818 L261.502906,105.158134 C261.993946,105.860358 262.44233,106.569545 262.904602,107.276743 C263.813274,108.691139 264.661434,110.13438 265.489754,111.584583 C267.128538,114.493941 268.639354,117.47193 269.97161,120.538444 C270.665018,122.056283 271.26617,123.622861 271.900058,125.169545 C272.457562,126.754027 273.06665,128.310658 273.555706,129.922989 C274.63897,133.099909 275.41769,136.398176 276.134906,139.697439 L276.217242,140.073417 C276.520794,141.471898 276.22121,142.876348 275.504986,143.992348 C274.258042,145.922968 272.737306,147.739203 270.992378,149.356508 C269.261338,150.983759 267.21881,152.335492 265.060218,153.361973 C262.889722,154.378508 260.568442,155.011107 258.254106,155.252807 C257.09545,155.37515 255.936794,155.38808 254.787066,155.316465 C254.210714,155.272701 253.637338,155.206059 253.060986,155.114551 C252.772314,155.067802 252.483642,155.008123 252.188026,154.943471 L251.190074,154.700775 C250.944058,154.641096 250.794266,154.392433 250.853786,154.146754 L252.225722,148.379759 C252.236634,148.335 252.48761,148.319086 252.642362,148.281289 L253.189946,148.169888 C253.561946,148.094294 253.93593,148.004775 254.306938,147.899342 C255.048954,147.703396 255.77113,147.440807 256.463546,147.152358 C257.846394,146.561535 259.11417,145.832455 260.219258,144.930305 C262.45721,143.172754 264.122778,140.832337 265.442138,138.11992 L264.811226,142.414829 C263.961082,139.602947 263.06233,136.807973 261.962202,134.060743 C260.890842,131.311524 259.68953,128.599107 258.386042,125.931449 C257.079578,123.26777 255.698714,120.629952 254.202778,118.066733 C253.465722,116.778658 252.688986,115.517439 251.919194,114.262187 L250.738714,112.417107 L250.150458,111.518936 L249.609818,110.721225 L249.41241,110.429791 C247.409562,107.478658 248.173402,103.460262 251.115674,101.454048 C253.989498,99.4935882 257.887066,100.187856 259.931578,102.969898" id="Fill-91" fill="#1A2E35" mask="url(#mask-2)"></path>
                    <path d="M246.793926,154.088666 L244.652198,157.594816 L253.915494,157.219832 C253.915494,157.219832 256.340934,150.97441 253.024678,149.988709 L251.744998,150.344795 C249.681638,150.919704 247.91191,152.257511 246.793926,154.088666" id="Fill-92" fill="#FF8C7B" mask="url(#mask-2)"></path>
                    <path d="M250.598643,149.184831 C250.033203,149.564788 249.439987,150.108863 248.910259,150.886681 C251.428947,152.257312 254.945587,156.937152 254.945587,156.937152 L255.756051,154.369954 C255.968339,153.697569 255.871123,152.96451 255.492179,152.370703 L253.911923,149.891034 C253.196691,148.769066 251.700755,148.44282 250.598643,149.184831" id="Fill-93" fill="#E84C51" mask="url(#mask-2)"></path>
                    <polygon id="Fill-94" fill="#FF8C7B" mask="url(#mask-2)" points="245.467226 162.983743 253.100666 162.304396 253.91609 157.219733 244.652794 157.594717"></polygon>
                    <path d="M151.832147,41.5521016 L151.326227,40.6967005 C152.777523,39.8343369 154.304211,39.0734278 155.865619,38.4358556 L156.239603,39.3559091 C154.723827,39.9765722 153.240787,40.7146043 151.832147,41.5521016" id="Fill-95" fill="#E84C51" mask="url(#mask-2)"></path>
                    <path d="M137.347459,59.0697209 L136.413987,58.731539 C138.761059,52.2225337 142.966147,46.6146834 148.573923,42.5137316 L149.159203,43.3174107 C143.711139,47.2999989 139.626083,52.7477102 137.347459,59.0697209" id="Fill-96" fill="#E84C51" mask="url(#mask-2)"></path>
                    <path d="M199.368291,70.4494396 C199.368291,87.3575358 185.698531,101.062851 168.836515,101.062851 C151.974499,101.062851 138.304739,87.3575358 138.304739,70.4494396 C138.304739,53.542338 151.974499,39.8360278 168.836515,39.8360278 C185.698531,39.8360278 199.368291,53.542338 199.368291,70.4494396" id="Fill-97" fill="#E84C51" mask="url(#mask-2)"></path>
                    <path d="M194.342918,70.4475497 C194.342918,84.5795711 182.927974,96.0250364 168.833638,96.0250364 C162.15847,96.0250364 156.078502,93.4538599 151.533158,89.2405123 C146.48487,84.5686299 143.324358,77.8756139 143.324358,70.4475497 C143.324358,56.3274642 154.751206,44.8700631 168.833638,44.8700631 C176.29943,44.8700631 183.008326,48.0847797 187.679654,53.2052503 C187.690566,53.2052503 187.713382,53.2161914 187.725286,53.2510043 C191.835142,57.7965658 194.342918,63.8241594 194.342918,70.4475497" id="Fill-98" fill="#FFFFFF" mask="url(#mask-2)"></path>
                    <path d="M194.342918,70.4475497 C194.342918,84.5795711 182.927974,96.0250364 168.833638,96.0250364 C162.15847,96.0250364 156.078502,93.4538599 151.533158,89.2405123 C147.332038,84.683015 144.755814,78.5758492 144.755814,71.8828332 C144.755814,57.7627476 156.18167,46.3053465 170.265094,46.3053465 C177.00871,46.3053465 183.111494,48.9113358 187.679654,53.2052503 C187.690566,53.2052503 187.713382,53.2161914 187.725286,53.2510043 C191.835142,57.7965658 194.342918,63.8241594 194.342918,70.4475497" id="Fill-99" fill="#FFFFFF" mask="url(#mask-2)"></path>
                    <path d="M168.836614,71.9414182 C168.455686,71.9414182 168.074758,71.7961989 167.784102,71.5047658 L155.344422,59.0318246 C154.76311,58.4499529 154.76311,57.5050332 155.344422,56.9221668 C155.925734,56.3393005 156.868134,56.3393005 157.449446,56.9221668 L168.836614,68.3397818 L175.414566,61.7442417 C175.995878,61.1613754 176.937286,61.1613754 177.518598,61.7442417 C178.09991,62.3261134 178.09991,63.2720278 177.518598,63.8538995 L169.889126,71.5047658 C169.59847,71.7961989 169.217542,71.9414182 168.836614,71.9414182" id="Fill-100" fill="#1A2E35" mask="url(#mask-2)"></path>
                </g>
            </g>
        </g>
    </g>
</svg>