<?xml version="1.0" encoding="UTF-8"?>
<svg width="54px" height="64px" viewBox="0 0 54 64" version="1.1" xmlns="http://www.w3.org/2000/svg" xmlns:xlink="http://www.w3.org/1999/xlink">
    <!-- Generator: Sketch 57.1 (83088) - https://sketch.com -->
    <title>Combined Shape 2</title>
    <desc>Created with Sketch.</desc>
    <g id="Page-1" stroke="none" stroke-width="1" fill="none" fill-rule="evenodd">
        <g id="Add-account-(facebook)" transform="translate(-1004.000000, -196.000000)" fill="#AAC148" fill-rule="nonzero">
            <g id="Group-4" transform="translate(912.000000, 168.000000)">
                <g id="Combined-Shape-2" transform="translate(92.000000, 28.000000)">
                    <path d="M43.2983286,21.1292895 C43.9781093,21.1292895 44.5373208,21.6438128 44.6045669,22.3032033 L44.6113465,22.4369034 L44.6113465,49.6625666 C44.6113465,50.3396297 44.094758,50.8964695 43.4327209,50.9634296 L43.2984841,50.9701804 L37.4065457,50.9701804 L37.4065457,60.1453199 C37.4065457,62.2077482 35.7803496,63.8917486 33.7355442,63.9949845 L33.5363935,64 L33.3372292,63.9949841 C31.3582572,63.8950697 29.7715837,62.3146073 29.6712769,60.3436744 L29.6662413,60.1453199 L29.6662413,50.9701804 L24.253192,50.9701804 L24.253192,60.1453199 C24.253192,62.2077482 22.626996,63.8917486 20.5821905,63.9949845 L20.3830399,64 L20.1838755,63.9949841 C18.2049036,63.8950697 16.6182301,62.3146073 16.5179233,60.3436744 L16.5128877,60.1453199 L16.5128877,50.9701804 L10.7016714,50.9701804 C10.0218907,50.9701804 9.46281588,50.4556571 9.39558692,49.7962667 L9.38880904,49.6625666 L9.38880904,22.4369034 C9.38880904,21.7598403 9.90539756,21.2030005 10.5674346,21.1360403 L10.7016714,21.1292895 L43.2983286,21.1292895 Z M3.87015216,21.1229381 L4.06930238,21.127954 C6.04813767,21.2278684 7.63481116,22.8083308 7.7352546,24.7792638 L7.74030433,24.9776183 L7.74030433,40.6338192 C7.74030433,42.6962475 6.11410826,44.3802479 4.06930282,44.4834838 L3.87015216,44.4884993 L3.67098782,44.4834834 C1.69201583,44.383569 0.105342345,42.8031067 0.0050355979,40.8321737 L-2.88657986e-14,40.6338192 L-2.88657986e-14,24.9776183 C-2.88657986e-14,22.84866 1.73280413,21.1229381 3.87015216,21.1229381 Z M50.1298478,21.1229381 L50.3290122,21.127954 C52.3079842,21.2278684 53.8946577,22.8083308 53.9949644,24.7792638 L54,24.9776183 L54,40.6338192 C54,42.6962475 52.3738039,44.3802479 50.3289985,44.4834838 L50.1298478,44.4884993 L49.9306835,44.4834834 C47.9517115,44.383569 46.365038,42.8031067 46.2647313,40.8321737 L46.2596957,40.6338192 L46.2596957,24.9776183 C46.2596957,22.84866 47.9924998,21.1229381 50.1298478,21.1229381 Z M15.841292,0.0864818031 C16.1752234,-0.097863708 16.5962539,0.0221932425 16.7814949,0.355099548 L16.7814949,0.355099548 L19.5370905,5.30717766 C21.7940442,4.26399895 24.3093398,3.68137418 26.9615053,3.68137418 C29.6135153,3.68137418 32.1288109,4.26399895 34.3857646,5.30717766 L34.3857646,5.30717766 L37.1413602,0.35525446 C37.3264457,0.0225030669 37.746854,-0.0981735324 38.0817187,0.0866367153 C38.4158057,0.270982226 38.5365001,0.690329536 38.3514146,1.02308093 L38.3514146,1.02308093 L35.616505,5.93798012 C39.9737896,8.38357893 43.1849443,12.6170194 44.2431975,17.640512 C44.414596,18.4541109 43.792149,19.2198418 42.9575536,19.2198418 L42.9575536,19.2198418 L10.9654571,19.2198418 C10.1307062,19.2198418 9.50825914,18.4541109 9.67981313,17.640512 C10.7380664,12.6168645 13.949221,8.38357893 18.3065056,5.9378252 L18.3065056,5.9378252 L15.571596,1.02292602 C15.3865106,0.690174624 15.507205,0.270827314 15.841292,0.0864818031 Z M35.0198767,10.4133934 C34.1981906,10.4133934 33.5321941,11.0768823 33.5321941,11.8951285 C33.5321941,12.7135297 34.1983462,13.3768637 35.0198767,13.3768637 C35.8415627,13.3768637 36.5075592,12.7133748 36.5075592,11.8951285 C36.5075592,11.0768823 35.8415627,10.4133934 35.0198767,10.4133934 Z M18.9028229,10.4133934 C18.0811369,10.4133934 17.4151404,11.0768823 17.4151404,11.8951285 C17.4151404,12.7135297 18.0812924,13.3768637 18.9028229,13.3768637 C19.724509,13.3768637 20.3905055,12.7133748 20.3905055,11.8951285 C20.3905055,11.0767274 19.7243535,10.4133934 18.9028229,10.4133934 Z" id="Combined-Shape"></path>
                </g>
            </g>
        </g>
    </g>
</svg>