<?xml version="1.0" encoding="UTF-8"?>
<svg width="60px" height="61px" viewBox="0 0 60 61" version="1.1" xmlns="http://www.w3.org/2000/svg" xmlns:xlink="http://www.w3.org/1999/xlink">
    <!-- Generator: Sketch 61 (89581) - https://sketch.com -->
    <title></title>
    <desc>Created with Sketch.</desc>
    <g id="Page-1" stroke="none" stroke-width="1" fill="none" fill-rule="evenodd">
        <g id="Add-account-(facebook)" transform="translate(-1259.000000, -197.000000)" fill="#FFBD72" fill-rule="nonzero">
            <g id="Group-3" transform="translate(1170.000000, 168.000000)">
                <path d="M118.057624,89.4999821 C118.41754,89.4863637 118.975324,89.3534981 119.302738,89.203352 L130.872344,83.4154019 C132.586207,82.5584703 133.978035,80.3099406 133.978035,78.3928309 L133.978035,66.4964969 C142.507754,61.0161633 148.997683,53.6699894 148.997683,41.5704089 C149.008669,38.5784727 149.008669,35.5938606 148.188129,31.7669655 C148.045308,31.1096184 147.397116,30.4614266 146.7416,30.3204357 C142.917909,29.5001252 139.925744,29.5001252 136.948227,29.5001252 C124.788909,29.5001252 117.471688,35.9564086 111.99639,44.5000894 L100.111729,44.5000894 C98.1962214,44.5019205 95.9476916,45.8916877 95.086869,47.6037197 L89.2966302,59.1832819 C89.1457974,59.5130999 89.0128174,60.0750034 89,60.4375514 C89,61.9897099 90.2605637,63.2497014 91.8127222,63.2500447 L102.668104,63.2500447 L101.426652,65.7604147 C100.332599,67.9764433 101.927902,69.8356461 102.148086,70.0523966 L108.447357,76.3475477 C108.664565,76.5659004 110.532007,78.1614319 112.739796,77.0671504 L115.244902,75.8275294 L115.244902,86.6874888 C115.254286,88.2307209 116.514392,89.4907124 118.057624,89.4999821 Z M111.095284,73.6961868 L104.788689,67.4211773 C107.235201,62.4718483 112.820363,51.179761 115.127715,46.5398795 C121.013168,37.351669 127.748344,33.2501162 136.948227,33.2501162 C139.471643,33.2501162 141.870548,33.2501162 144.756512,33.7536551 C145.265544,36.6668561 145.254558,39.0508836 145.247234,41.5685778 C145.247234,50.7183363 141.145452,57.4437841 131.94534,63.3562456 C127.315987,65.6743553 116.021267,71.2590588 111.095284,73.6961868 Z M132.123295,52.9398581 C135.666713,52.9398581 138.557069,50.1265328 138.681062,46.6131831 L138.685207,46.3778315 C138.683752,42.8359806 135.870614,39.9457681 132.358773,39.8202806 L132.123295,39.8160338 C128.501134,39.8160338 125.561383,42.7557851 125.561383,46.377946 C125.561383,50.0001068 128.501134,52.9398581 132.123295,52.9398581 Z M132.123409,49.1900959 C130.571137,49.1900959 129.311145,47.9302189 129.311145,46.3778315 C129.311145,44.8254442 130.571137,43.5655671 132.123409,43.5655671 C133.675797,43.5655671 134.935674,44.8254442 134.935674,46.3778315 C134.934241,47.87107 133.765907,49.0946562 132.294689,49.1847767 L132.123409,49.1900959 Z M104.521356,59.5000536 L93.3290607,59.5000536 L98.4381489,49.2809618 C98.7274548,48.7151672 99.4745234,48.2519115 100.111729,48.2500805 L110.095531,48.2500805 C108.462005,51.5386468 106.37827,55.7500626 104.521356,59.5000536 Z M118.995122,85.164055 L118.995122,73.9708443 C122.745571,72.1159904 126.942453,70.0340861 130.231477,68.3989582 L130.231477,78.3891688 C130.227815,79.0263743 129.762499,79.7771049 129.191211,80.0609177 L118.995122,85.164055 Z" id=""></path>
            </g>
        </g>
    </g>
</svg>