<?xml version="1.0" encoding="UTF-8"?>
<svg width="56px" height="56px" viewBox="0 0 56 56" version="1.1" xmlns="http://www.w3.org/2000/svg" xmlns:xlink="http://www.w3.org/1999/xlink">
    <!-- Generator: Sketch 57.1 (83088) - https://sketch.com -->
    <title>Group 5</title>
    <desc>Created with Sketch.</desc>
    <g id="Page-1" stroke="none" stroke-width="1" fill="none" fill-rule="evenodd">
        <g id="Dropdown" transform="translate(-105.000000, -148.000000)" fill="#53D56C">
            <g id="Group-5" transform="translate(105.000000, 148.000000)">
                <path d="M55.3726381,37.1562201 C55.4097287,36.8857967 55.440461,36.614843 55.4743724,36.3444195 C55.515702,36.0151392 55.5591511,35.6853286 55.595182,35.355518 C55.6338623,35.0034373 55.6651244,34.6518868 55.698506,34.3008666 C55.72235,34.0447596 55.749903,33.7886527 55.7710977,33.5325458 C55.8018299,33.1592554 55.8251441,32.785965 55.8495179,32.4121443 C55.8654139,32.1740656 55.8844891,31.9359869 55.8977358,31.697378 C55.9173408,31.3368134 55.9300576,30.9762488 55.9438342,30.6156842 C55.9539016,30.3606377 55.9671483,30.1055913 55.9740365,29.8510751 C55.9830443,29.5228553 55.9851637,29.1951657 55.9894027,28.8680063 C55.9931117,28.5784941 56,28.288982 56,28 C56,27.7110181 55.9931117,27.4215059 55.9894027,27.1319937 C55.9851637,26.8048344 55.9830443,26.4766145 55.9740365,26.1489249 C55.9671483,25.8944088 55.9539016,25.6393623 55.9438342,25.3843159 C55.9300576,25.0237513 55.9173408,24.6626564 55.8977358,24.3026221 C55.8844891,24.0645434 55.8654139,23.8259344 55.8495179,23.5878557 C55.8251441,23.2140351 55.8018299,22.8407447 55.7710977,22.4674542 C55.749903,22.2113473 55.72235,21.9552404 55.698506,21.6991335 C55.6651244,21.3481132 55.6338623,20.9960325 55.595182,20.644482 C55.5591511,20.3146714 55.515702,19.9853911 55.4743724,19.6555805 C55.440461,19.3846268 55.4097287,19.1142034 55.3726381,18.8437799 C55.3037554,18.3395197 55.2258651,17.8352595 55.1453253,17.330469 C55.131019,17.2413884 55.1193619,17.1523077 55.1050555,17.0637573 C54.8952284,15.7826924 54.6514898,14.5026881 54.3685411,13.2248047 C53.0189711,7.12702085 49.0677567,3.10937667 43.0431747,1.68408598 C42.7771817,1.6087916 42.5074796,1.53667868 42.2324789,1.47092866 C41.9839715,1.41101131 41.728046,1.37495485 41.4684114,1.34632178 C36.9915694,0.450212676 32.4956523,-0.00473502241 27.9997351,0 C23.5038179,-0.00473502241 19.0079007,0.450212676 14.5310587,1.34632178 C14.271954,1.37495485 14.0154986,1.41101131 13.7669912,1.47092866 C13.4919905,1.53667868 13.2228183,1.6087916 12.9568253,1.68408598 C6.93224332,3.10937667 2.98102889,7.12649061 1.63145893,13.2248047 C1.34851022,14.5026881 1.10424177,15.7826924 0.894944506,17.0637573 C0.880108244,17.1533682 0.868451181,17.2429791 0.85361492,17.3331203 C0.773605079,17.8357897 0.696244571,18.3395197 0.627361927,18.8427194 C0.589741406,19.1142034 0.559539016,19.3846268 0.525627561,19.6561108 C0.484297974,19.9859213 0.440848922,20.3157319 0.404288134,20.6455425 C0.36560788,20.997093 0.334345757,21.3486435 0.301494034,21.7007242 C0.277650042,21.9557706 0.250096984,22.2108171 0.228902325,22.466924 C0.198170068,22.8396842 0.174855943,23.2129746 0.149952217,23.586265 C0.134056223,23.8248739 0.114981029,24.0645434 0.101734367,24.3031523 C0.0821293063,24.6626564 0.069942377,25.0221605 0.0561658482,25.3816647 C0.0455685184,25.6372413 0.0328517225,25.8933483 0.0254335916,26.1489249 C0.0164258613,26.4766145 0.0148362618,26.8048344 0.0105973299,27.1319937 C0.0068882644,27.4215059 0,27.7110181 0,28 C0,28.288982 0.0068882644,28.5784941 0.0105973299,28.8680063 C0.0148362618,29.1951657 0.0164258613,29.5228553 0.0254335916,29.8510751 C0.0328517225,30.1066518 0.0455685184,30.3622285 0.0561658482,30.6183354 C0.069942377,30.9778395 0.0821293063,31.3373436 0.101734367,31.6968477 C0.114981029,31.9354567 0.134056223,32.1745959 0.149952217,32.413735 C0.174855943,32.7870254 0.198170068,33.1603159 0.228902325,33.533076 C0.250096984,33.7886527 0.277650042,34.0442294 0.301494034,34.2992758 C0.334345757,34.6508263 0.36560788,35.0023768 0.404288134,35.3544576 C0.440848922,35.6842681 0.484297974,36.0140787 0.525627561,36.3438893 C0.559539016,36.614843 0.589741406,36.8857967 0.627361927,37.1572806 C0.696244571,37.6604803 0.773605079,38.1636801 0.85361492,38.6668798 C0.868451181,38.7570209 0.880108244,38.8466319 0.894944506,38.9357125 C1.10424177,40.2167774 1.34851022,41.497312 1.63145893,42.7751954 C2.98102889,48.8735094 6.93224332,52.8906234 12.9568253,54.3159141 C13.2228183,54.3912084 13.4919905,54.4633214 13.7669912,54.5296016 C14.0154986,54.5889887 14.271954,54.6250452 14.5310587,54.653148 C19.0079007,55.5492571 23.5038179,56.0047351 27.9997351,56 C32.4956523,56.0047351 36.9915694,55.5492571 41.4684114,54.653148 C41.728046,54.6250452 41.9839715,54.5889887 42.2324789,54.5296016 C42.5074796,54.4633214 42.7771817,54.3912084 43.0431747,54.3153838 C49.0677567,52.8906234 53.0189711,48.8729792 54.3685411,42.7751954 C54.6514898,41.497312 54.8952284,40.2167774 55.1050555,38.9357125 C55.1193619,38.8471621 55.131019,38.7580814 55.1453253,38.669531 C55.2258651,38.1647405 55.3037554,37.6604803 55.3726381,37.1562201" id="Combined-Shape-Copy-16" fill-opacity="0.12"></path>
                <path d="M22.033214,29.7394762 C22.996025,29.1869197 23.3259084,27.963137 22.7700292,27.006081 C22.21415,26.0490251 20.9830083,25.7211135 20.0201973,26.27367 C19.0573862,26.8262265 18.7275028,28.0500092 19.283382,29.0070652 C19.8392612,29.9641211 21.0704029,30.2920327 22.033214,29.7394762 Z M23.890699,30.8206653 C23.6433616,31.069097 23.3589348,31.2891835 23.0397223,31.4723793 C21.1141002,32.5774923 18.6518169,31.9216692 17.5400584,30.0075572 C16.4283,28.0934453 17.0880669,25.6458799 19.0136889,24.5407669 C20.6383266,23.6083886 22.6449711,23.929482 23.900254,25.2021772 L31.0932376,21.0741294 C30.612065,19.3571729 31.33564,17.4692086 32.9602777,16.5368303 C34.8858997,15.4317173 37.3481831,16.0875405 38.4599416,18.0016524 C39.5717,19.9157643 38.9119331,22.3633297 36.986311,23.4684427 C35.3616734,24.400821 33.3550289,24.0797276 32.099746,22.8070325 L24.9067623,26.9350802 C25.1074236,27.6510947 25.0985669,28.3968491 24.9022171,29.0906373 L32.0503887,33.1929675 C33.3056717,31.9202724 35.3123161,31.599179 36.9369538,32.5315573 C38.8625759,33.6366703 39.5223427,36.0842357 38.4105843,37.9983476 C37.2988258,39.9124595 34.8365425,40.5682827 32.9109204,39.4631697 C31.2862828,38.5307914 30.5627077,36.6428271 31.0438804,34.9258707 L23.890699,30.8206653 L23.890699,30.8206653 Z M35.9798027,21.7355396 C36.9426137,21.1829831 37.2724971,19.9592004 36.7166179,19.0021444 C36.1607387,18.0450885 34.929597,17.7171769 33.966786,18.2697334 C33.003975,18.8222899 32.6740916,20.0460726 33.2299708,21.0031286 C33.78585,21.9601845 35.0169917,22.2880961 35.9798027,21.7355396 Z M33.9174287,37.7302666 C34.8802398,38.2828231 36.1113815,37.9549115 36.6672607,36.9978556 C37.2231399,36.0407996 36.8932565,34.8170169 35.9304454,34.2644604 C34.9676344,33.7119038 33.7364927,34.0398155 33.1806135,34.9968714 C32.6247343,35.9539274 32.9546177,37.1777101 33.9174287,37.7302666 Z" id="Shape" fill-rule="nonzero"></path>
            </g>
        </g>
    </g>
</svg>