<?xml version="1.0" encoding="UTF-8"?>
<svg width="56px" height="56px" viewBox="0 0 56 56" version="1.1" xmlns="http://www.w3.org/2000/svg" xmlns:xlink="http://www.w3.org/1999/xlink">
    <!-- Generator: Sketch 57.1 (83088) - https://sketch.com -->
    <title>Group 16</title>
    <desc>Created with Sketch.</desc>
    <g id="Page-1" stroke="none" stroke-width="1" fill="none" fill-rule="evenodd">
        <g id="Dropdown" transform="translate(-807.000000, -148.000000)" fill="#26C0D6">
            <g id="Group-16" transform="translate(807.000000, 148.000000)">
                <path d="M55.4743724,36.3444561 C55.515702,36.0151758 55.5591511,35.6853652 55.595182,35.3555546 C55.6338623,35.0034739 55.6651244,34.6519234 55.698506,34.3009031 C55.72235,34.0447962 55.749903,33.7886893 55.7710977,33.5325824 C55.8018299,33.159292 55.8251441,32.7860015 55.8495179,32.4121809 C55.8654139,32.1741022 55.8844891,31.9360235 55.8977358,31.6974146 C55.9173408,31.33685 55.9300576,30.9762854 55.9438342,30.6157207 C55.9539016,30.3606743 55.9671483,30.1056279 55.9740365,29.8511117 C55.9830443,29.5228918 55.9851637,29.1952022 55.9894027,28.8680429 C55.9931117,28.5785307 56,28.2890185 56,28.0000366 C56,27.7110547 55.9931117,27.4215425 55.9894027,27.1320303 C55.9851637,26.804871 55.9830443,26.4766511 55.9740365,26.1489615 C55.9671483,25.8944453 55.9539016,25.6393989 55.9438342,25.3843525 C55.9300576,25.0237879 55.9173408,24.662693 55.8977358,24.3026586 C55.8844891,24.0645799 55.8654139,23.825971 55.8495179,23.5878923 C55.8251441,23.2140717 55.8018299,22.8407812 55.7710977,22.4674908 C55.749903,22.2113839 55.72235,21.955277 55.698506,21.6991701 C55.6651244,21.3481498 55.6338623,20.9960691 55.595182,20.6445186 C55.5591511,20.314708 55.515702,19.9854277 55.4743724,19.6556171 C55.440461,19.3846634 55.4097287,19.11424 55.3726381,18.8438165 C55.3037554,18.3395563 55.2258651,17.8352961 55.1453253,17.3305056 C55.131019,17.241425 55.1193619,17.1523443 55.1050555,17.0637939 C54.8952284,15.782729 54.6514898,14.5027247 54.3685411,13.2248413 C53.0189711,7.12705743 49.0677567,3.10941325 43.0431747,1.68412256 C42.7771817,1.60882819 42.5074796,1.53671526 42.2324789,1.47096525 C41.9839715,1.41104789 41.728046,1.37499143 41.4684114,1.34635836 C36.9915694,0.450249258 32.4956523,-0.00469843959 27.9997351,2.13162821e-14 C23.5038179,-0.00469843959 19.0079007,0.450249258 14.5310587,1.34635836 C14.271954,1.37499143 14.0154986,1.41104789 13.7669912,1.47096525 C13.4919905,1.53671526 13.2228183,1.60882819 12.9568253,1.68412256 C6.93224332,3.10941325 2.98102889,7.12652719 1.63145893,13.2248413 C1.34851022,14.5027247 1.10424177,15.782729 0.894944506,17.0637939 C0.880108244,17.1534048 0.868451181,17.2430157 0.85361492,17.3331568 C0.773605079,17.8358263 0.696244571,18.3395563 0.627361927,18.842756 C0.589741406,19.11424 0.559539016,19.3846634 0.525627561,19.6561474 C0.484297974,19.9859579 0.440848922,20.3157685 0.404288134,20.6455791 C0.36560788,20.9971296 0.334345757,21.3486801 0.301494034,21.7007608 C0.277650042,21.9558072 0.250096984,22.2108537 0.228902325,22.4669606 C0.198170068,22.8397208 0.174855943,23.2130112 0.149952217,23.5863016 C0.134056223,23.8249105 0.114981029,24.0645799 0.101734367,24.3031889 C0.0821293063,24.662693 0.069942377,25.0221971 0.0561658482,25.3817013 C0.0455685184,25.6372779 0.0328517225,25.8933849 0.0254335916,26.1489615 C0.0164258613,26.4766511 0.0148362618,26.804871 0.0105973299,27.1320303 C0.0068882644,27.4215425 0,27.7110547 0,28.0000366 C0,28.2890185 0.0068882644,28.5785307 0.0105973299,28.8680429 C0.0148362618,29.1952022 0.0164258613,29.5228918 0.0254335916,29.8511117 C0.0328517225,30.1066884 0.0455685184,30.362265 0.0561658482,30.618372 C0.069942377,30.9778761 0.0821293063,31.3373802 0.101734367,31.6968843 C0.114981029,31.9354933 0.134056223,32.1746324 0.149952217,32.4137716 C0.174855943,32.787062 0.198170068,33.1603525 0.228902325,33.5331126 C0.250096984,33.7886893 0.277650042,34.044266 0.301494034,34.2993124 C0.334345757,34.6508629 0.36560788,35.0024134 0.404288134,35.3544941 C0.440848922,35.6843047 0.484297974,36.0141153 0.525627561,36.3439259 C0.559539016,36.6148796 0.589741406,36.8858333 0.627361927,37.1573172 C0.696244571,37.6605169 0.773605079,38.1637166 0.85361492,38.6669164 C0.868451181,38.7570575 0.880108244,38.8466684 0.894944506,38.9357491 C1.10424177,40.2168139 1.34851022,41.4973486 1.63145893,42.7752319 C2.98102889,48.873546 6.93224332,52.89066 12.9568253,54.3159506 C13.2228183,54.391245 13.4919905,54.4633579 13.7669912,54.5296382 C14.0154986,54.5890253 14.271954,54.6250818 14.5310587,54.6531846 C19.0079007,55.5492937 23.5038179,56.0047716 27.9997351,56.0000731 C32.4956523,56.0047716 36.9915694,55.5492937 41.4684114,54.6531846 C41.728046,54.6250818 41.9839715,54.5890253 42.2324789,54.5296382 C42.5074796,54.4633579 42.7771817,54.391245 43.0431747,54.3154204 C49.0677567,52.89066 53.0189711,48.8730158 54.3685411,42.7752319 C54.6514898,41.4973486 54.8952284,40.2168139 55.1050555,38.9357491 C55.1193619,38.8471987 55.131019,38.758118 55.1453253,38.6695676 C55.2258651,38.1647771 55.3037554,37.6605169 55.3726381,37.1562567 C55.4097287,36.8858333 55.440461,36.6148796 55.4743724,36.3444561 Z" id="Combined-Shape-Copy-14" opacity="0.12"></path>
                <path d="M38.7006706,26.5714286 C40.6822094,26.5714286 42.2871662,24.9732143 42.2871662,23 C42.2871662,21.0267857 40.6822094,19.4285714 38.7006706,19.4285714 C36.7191317,19.4285714 35.1141749,21.0267857 35.1141749,23 C35.1141749,24.9732143 36.7191317,26.5714286 38.7006706,26.5714286 Z M38.7006706,21.5714286 C39.4896996,21.5714286 40.1352688,22.2142857 40.1352688,23 C40.1352688,23.7857143 39.4896996,24.4285714 38.7006706,24.4285714 C37.9116415,24.4285714 37.2660723,23.7857143 37.2660723,23 C37.2660723,22.2142857 37.9116415,21.5714286 38.7006706,21.5714286 Z M18.3037948,26.5714286 C20.2853337,26.5714286 21.8902905,24.9732143 21.8902905,23 C21.8902905,21.0267857 20.2853337,19.4285714 18.3037948,19.4285714 C16.3222559,19.4285714 14.7172991,21.0267857 14.7172991,23 C14.7172991,24.9732143 16.3222559,26.5714286 18.3037948,26.5714286 Z M18.3037948,21.5714286 C19.0928239,21.5714286 19.7383931,22.2142857 19.7383931,23 C19.7383931,23.7857143 19.0928239,24.4285714 18.3037948,24.4285714 C17.5147658,24.4285714 16.8691965,23.7857143 16.8691965,23 C16.8691965,22.2142857 17.5147658,21.5714286 18.3037948,21.5714286 Z M36.2311308,30.9866071 C34.998273,29.1651786 32.6132533,28.4866071 30.501704,29.125 C29.865101,29.3169643 29.1971162,29.4241071 28.4977496,29.4241071 C27.7983829,29.4241071 27.1303981,29.3169643 26.4937951,29.125 C24.3822458,28.4866071 21.9972262,29.1607143 20.7643683,30.9866071 C20.2084614,31.8080357 19.8856768,32.7946429 19.8856768,33.8571429 L19.8856768,35.8571429 C19.8856768,37.0401786 20.8495475,38 22.0375742,38 L34.9489586,38 C36.1369853,38 37.100856,37.0401786 37.100856,35.8571429 L37.100856,33.8571429 C37.1098223,32.7946429 36.7870377,31.8080357 36.2311308,30.9866071 Z M34.9579249,35.8571429 L22.0465405,35.8571429 L22.0465405,33.8571429 C22.0465405,32.2321429 23.3556114,30.9017857 24.9785007,30.8571429 C26.1216962,31.3303571 27.3052397,31.5714286 28.5022327,31.5714286 C29.6992256,31.5714286 30.8827692,31.3303571 32.0259647,30.8571429 C33.648854,30.9017857 34.9579249,32.2276786 34.9579249,33.8571429 L34.9579249,35.8571429 Z M39.2386449,28 L38.1626962,28 C37.3871165,28 36.6653343,28.2366071 36.0645962,28.6383929 C36.6653343,29.0892857 37.1943424,29.6294643 37.6067894,30.2544643 C37.781631,30.1919643 37.9654389,30.1428571 38.1582131,30.1428571 L39.2341618,30.1428571 C40.1218195,30.1428571 40.8480848,30.8660714 40.8480848,31.75 C40.8480848,32.3392857 41.3322618,32.8214286 41.9240335,32.8214286 C42.5158053,32.8214286 42.9999911,32.3392857 42.9999911,31.75 C43.0044654,29.6830357 41.3143293,28 39.2386449,28 Z M28.5022327,28 C31.2772837,28 33.5233266,25.7633929 33.5233266,23 C33.5233266,20.2366071 31.2772837,18 28.5022327,18 C25.7271817,18 23.4811387,20.2366071 23.4811387,23 C23.4811387,25.7633929 25.7271817,28 28.5022327,28 Z M28.5022327,20.1428571 C30.0847739,20.1428571 31.3714292,21.4241071 31.3714292,23 C31.3714292,24.5758929 30.0847739,25.8571429 28.5022327,25.8571429 C26.9196915,25.8571429 25.6330361,24.5758929 25.6330361,23 C25.6330361,21.4241071 26.9196915,20.1428571 28.5022327,20.1428571 Z M20.9398691,28.6383929 C20.3391311,28.2366071 19.6173488,28 18.8417692,28 L17.7658205,28 C15.6901361,28 14,29.6830357 14,31.75 C14,32.3392857 14.4841769,32.8214286 15.0759487,32.8214286 C15.6677205,32.8214286 16.1518974,32.3392857 16.1518974,31.75 C16.1518974,30.8660714 16.8781628,30.1428571 17.7658205,30.1428571 L18.8417692,30.1428571 C19.0390264,30.1428571 19.2228343,30.1919643 19.3931929,30.2544643 C19.810123,29.6294643 20.3391311,29.0892857 20.9398691,28.6383929 Z" id="Shape" fill-rule="nonzero"></path>
            </g>
        </g>
    </g>
</svg>