<?xml version="1.0" encoding="UTF-8"?>
<svg width="56px" height="56px" viewBox="0 0 56 56" version="1.1" xmlns="http://www.w3.org/2000/svg" xmlns:xlink="http://www.w3.org/1999/xlink">
    <!-- Generator: Sketch 57.1 (83088) - https://sketch.com -->
    <title>Group 3</title>
    <desc>Created with Sketch.</desc>
    <g id="Page-1" stroke="none" stroke-width="1" fill="none" fill-rule="evenodd">
        <g id="Dropdown" transform="translate(-1130.000000, -148.000000)" fill="#713BDB">
            <g id="Group-3" transform="translate(1130.000000, 148.000000)">
                <path d="M55.3726381,37.1562201 C55.4097287,36.8857967 55.440461,36.614843 55.4743724,36.3444195 C55.515702,36.0151392 55.5591511,35.6853286 55.595182,35.355518 C55.6338623,35.0034373 55.6651244,34.6518868 55.698506,34.3008666 C55.72235,34.0447596 55.749903,33.7886527 55.7710977,33.5325458 C55.8018299,33.1592554 55.8251441,32.785965 55.8495179,32.4121443 C55.8654139,32.1740656 55.8844891,31.9359869 55.8977358,31.697378 C55.9173408,31.3368134 55.9300576,30.9762488 55.9438342,30.6156842 C55.9539016,30.3606377 55.9671483,30.1055913 55.9740365,29.8510751 C55.9830443,29.5228553 55.9851637,29.1951657 55.9894027,28.8680063 C55.9931117,28.5784941 56,28.288982 56,28 C56,27.7110181 55.9931117,27.4215059 55.9894027,27.1319937 C55.9851637,26.8048344 55.9830443,26.4766145 55.9740365,26.1489249 C55.9671483,25.8944088 55.9539016,25.6393623 55.9438342,25.3843159 C55.9300576,25.0237513 55.9173408,24.6626564 55.8977358,24.3026221 C55.8844891,24.0645434 55.8654139,23.8259344 55.8495179,23.5878557 C55.8251441,23.2140351 55.8018299,22.8407447 55.7710977,22.4674542 C55.749903,22.2113473 55.72235,21.9552404 55.698506,21.6991335 C55.6651244,21.3481132 55.6338623,20.9960325 55.595182,20.644482 C55.5591511,20.3146714 55.515702,19.9853911 55.4743724,19.6555805 C55.440461,19.3846268 55.4097287,19.1142034 55.3726381,18.8437799 C55.3037554,18.3395197 55.2258651,17.8352595 55.1453253,17.330469 C55.131019,17.2413884 55.1193619,17.1523077 55.1050555,17.0637573 C54.8952284,15.7826924 54.6514898,14.5026881 54.3685411,13.2248047 C53.0189711,7.12702085 49.0677567,3.10937667 43.0431747,1.68408598 C42.7771817,1.6087916 42.5074796,1.53667868 42.2324789,1.47092866 C41.9839715,1.41101131 41.728046,1.37495485 41.4684114,1.34632178 C36.9915694,0.450212676 32.4956523,-0.00473502241 27.9997351,0 C23.5038179,-0.00473502241 19.0079007,0.450212676 14.5310587,1.34632178 C14.271954,1.37495485 14.0154986,1.41101131 13.7669912,1.47092866 C13.4919905,1.53667868 13.2228183,1.6087916 12.9568253,1.68408598 C6.93224332,3.10937667 2.98102889,7.12649061 1.63145893,13.2248047 C1.34851022,14.5026881 1.10424177,15.7826924 0.894944506,17.0637573 C0.880108244,17.1533682 0.868451181,17.2429791 0.85361492,17.3331203 C0.773605079,17.8357897 0.696244571,18.3395197 0.627361927,18.8427194 C0.589741406,19.1142034 0.559539016,19.3846268 0.525627561,19.6561108 C0.484297974,19.9859213 0.440848922,20.3157319 0.404288134,20.6455425 C0.36560788,20.997093 0.334345757,21.3486435 0.301494034,21.7007242 C0.277650042,21.9557706 0.250096984,22.2108171 0.228902325,22.466924 C0.198170068,22.8396842 0.174855943,23.2129746 0.149952217,23.586265 C0.134056223,23.8248739 0.114981029,24.0645434 0.101734367,24.3031523 C0.0821293063,24.6626564 0.069942377,25.0221605 0.0561658482,25.3816647 C0.0455685184,25.6372413 0.0328517225,25.8933483 0.0254335916,26.1489249 C0.0164258613,26.4766145 0.0148362618,26.8048344 0.0105973299,27.1319937 C0.0068882644,27.4215059 0,27.7110181 0,28 C0,28.288982 0.0068882644,28.5784941 0.0105973299,28.8680063 C0.0148362618,29.1951657 0.0164258613,29.5228553 0.0254335916,29.8510751 C0.0328517225,30.1066518 0.0455685184,30.3622285 0.0561658482,30.6183354 C0.069942377,30.9778395 0.0821293063,31.3373436 0.101734367,31.6968477 C0.114981029,31.9354567 0.134056223,32.1745959 0.149952217,32.413735 C0.174855943,32.7870254 0.198170068,33.1603159 0.228902325,33.533076 C0.250096984,33.7886527 0.277650042,34.0442294 0.301494034,34.2992758 C0.334345757,34.6508263 0.36560788,35.0023768 0.404288134,35.3544576 C0.440848922,35.6842681 0.484297974,36.0140787 0.525627561,36.3438893 C0.559539016,36.614843 0.589741406,36.8857967 0.627361927,37.1572806 C0.696244571,37.6604803 0.773605079,38.1636801 0.85361492,38.6668798 C0.868451181,38.7570209 0.880108244,38.8466319 0.894944506,38.9357125 C1.10424177,40.2167774 1.34851022,41.497312 1.63145893,42.7751954 C2.98102889,48.8735094 6.93224332,52.8906234 12.9568253,54.3159141 C13.2228183,54.3912084 13.4919905,54.4633214 13.7669912,54.5296016 C14.0154986,54.5889887 14.271954,54.6250452 14.5310587,54.653148 C19.0079007,55.5492571 23.5038179,56.0047351 27.9997351,56 C32.4956523,56.0047351 36.9915694,55.5492571 41.4684114,54.653148 C41.728046,54.6250452 41.9839715,54.5889887 42.2324789,54.5296016 C42.5074796,54.4633214 42.7771817,54.3912084 43.0431747,54.3153838 C49.0677567,52.8906234 53.0189711,48.8729792 54.3685411,42.7751954 C54.6514898,41.497312 54.8952284,40.2167774 55.1050555,38.9357125 C55.1193619,38.8471621 55.131019,38.7580814 55.1453253,38.669531 C55.2258651,38.1647405 55.3037554,37.6604803 55.3726381,37.1562201" id="Combined-Shape-Copy-13" opacity="0.08"></path>
                <g id="calendar" transform="translate(17.000000, 16.000000)" fill-rule="nonzero">
                    <path d="M4,0 L4,1 L2,1 C0.8954305,1 -1.3527075e-16,1.8954305 0,3 L0,21 C1.3527075e-16,22.1045695 0.8954305,23 2,23 L20,23 C21.1045695,23 22,22.1045695 22,21 L22,3 C22,1.8954305 21.1045695,1 20,1 L18,1 L18,1 L18,0 L16,0 L16,1 L6,1 L6,0 L4,0 Z M2,3 L4,3 L4,4 L6,4 L6,3 L16,3 L16,4 L18,4 L18,3 L20,3 L20,5 L2,5 L2,3 Z M2,7 L20,7 L20,21 L2,21 L2,7 Z M8,9 L8,11 L10,11 L10,9 L8,9 Z M12,9 L12,11 L14,11 L14,9 L12,9 Z M16,9 L16,11 L18,11 L18,9 L16,9 Z M4,13 L4,15 L6,15 L6,13 L4,13 Z M8,13 L8,15 L10,15 L10,13 L8,13 Z M12,13 L12,15 L14,15 L14,13 L12,13 Z M16,13 L16,15 L18,15 L18,13 L16,13 Z M4,17 L4,19 L6,19 L6,17 L4,17 Z M8,17 L8,19 L10,19 L10,17 L8,17 Z M12,17 L12,19 L14,19 L14,17 L12,17 Z" id="Shape"></path>
                </g>
            </g>
        </g>
    </g>
</svg>