<?xml version="1.0" ?><!DOCTYPE svg  PUBLIC '-//W3C//DTD SVG 1.1//EN'  'http://www.w3.org/Graphics/SVG/1.1/DTD/svg11.dtd'><svg height="2048px"  viewBox="0 0 2048 2048" width="2048px" xml:space="preserve" xmlns="http://www.w3.org/2000/svg" xmlns:xlink="http://www.w3.org/1999/xlink"><defs><style type="text/css">
   <![CDATA[
    .fil4 {fill:none}
    .fil3 {fill:none;fill-rule:nonzero}
    .fil0 {fill:#007CBC}
    .fil1 {fill:#FFFFFE}
    .fil2 {fill:#FFFFFE;fill-rule:nonzero}
   ]]>
  </style></defs><g id="Layer_x0020_1"><path class="fil0" d="M474.142 255.999l1099.71 0c119.979,0 218.144,98.1639 218.144,218.143l0 1099.71c0,119.979 -98.165,218.144 -218.144,218.144l-1099.71 0c-119.979,0 -218.143,-98.165 -218.143,-218.144l0 -1099.71c0,-119.979 98.1639,-218.143 218.143,-218.143z"/><g id="_337332576"><path class="fil1" d="M1024 444.037c154.322,0 300.991,60.7642 410.096,169.867 109.103,109.104 169.867,255.774 169.867,410.096 0,154.322 -60.7642,300.991 -169.867,410.096 -109.104,109.103 -255.774,169.867 -410.096,169.867 -154.322,0 -300.991,-60.7642 -410.096,-169.867 -109.103,-109.104 -169.867,-255.774 -169.867,-410.096 0,-154.322 60.7642,-300.991 169.867,-410.096 109.104,-109.103 255.774,-169.867 410.096,-169.867zm359.881 220.082c-95.7733,-95.7733 -224.417,-149.066 -359.881,-149.066 -135.464,0 -264.108,53.2926 -359.881,149.066 -95.7733,95.7733 -149.066,224.417 -149.066,359.881 0,135.464 53.2926,264.108 149.066,359.881 95.7733,95.7733 224.417,149.066 359.881,149.066 135.464,0 264.108,-53.2926 359.881,-149.066 95.7733,-95.7733 149.066,-224.417 149.066,-359.881 0,-135.464 -53.2926,-264.108 -149.066,-359.881z" id="_337333776"/><path class="fil2" d="M974.944 771.739l59.517 34.3618 0.046063 0c4.23662,2.44725 7.0819,6.38741 8.25473,10.7658 1.17165,4.37008 0.669686,9.20906 -1.78701,13.4622l-211.858 366.949 -0.0200788 -0.011811c-2.46614,4.25315 -6.39922,7.10197 -10.7433,8.26654 -4.34764,1.16457 -9.17245,0.662599 -13.4173,-1.78701l-0.046063 0 -59.5489 -34.3807 -0.00236221 -0.0011811c-4.23307,-2.4437 -7.08071,-6.38623 -8.25473,-10.7646 -1.17047,-4.3689 -0.669686,-9.20906 1.78701,-13.4622l0.0200788 0.011811 211.813 -366.872 0.0248032 -0.0897638c2.4437,-4.23307 6.38623,-7.08071 10.7646,-8.25473 4.37126,-1.16811 9.20906,-0.668504 13.4622,1.78819l-0.011811 0.0188977z" id="_337333848"/><path class="fil2" d="M805.988 1233.66l-78.815 58.3418c-2.41654,2.09882 -5.67284,3.21733 -9.10394,2.8252 -6.49489,-0.740552 -11.1591,-6.60709 -10.4173,-13.1008l11.7591 1.34173 -11.7437 -1.34173 11.1496 -97.6985c0.103937,-1.78347 0.612993,-3.56929 1.56614,-5.22166 3.26811,-5.66103 10.5083,-7.6004 16.1681,-4.33229l-0.0259843 0.0437008 67.363 38.8925c1.76575,0.804331 3.3567,2.05512 4.59331,3.72402 3.88819,5.25355 2.78268,12.6662 -2.47087,16.5555l-0.022441 -0.0295276z" id="_337333632"/><path class="fil2" d="M1017.83 675.469c86.8796,107.353 160.611,207.382 207.685,285.012 24.5303,40.4528 41.9138,74.9575 50.289,101.446 9.82324,31.0666 7.74568,53.3315 -8.65867,64.4823 -1.45984,0.993308 -2.96693,1.86024 -4.52008,2.59725 -1.44685,1.0063 -2.94095,1.8815 -4.47756,2.62441 -17.5417,8.48505 -37.0878,-0.592914 -58.0973,-24.0496 -17.8299,-19.9063 -37.7811,-51.1193 -59.2158,-91.1127 -43.1705,-80.5442 -92.9576,-197.744 -143.786,-330.114l-0.0507874 0.0200788c-2.34331,-6.10158 0.703938,-12.9496 6.80552,-15.2917 5.22993,-2.00788 11.0079,-0.0555119 14.0268,4.38544z" id="_337334040"/><line class="fil3" id="_337333944" x1="1255.93" x2="1255.93" y1="1196.41" y2="1196.41"/><line class="fil3" id="_337332648" x1="1276.19" x2="1276.19" y1="1184.32" y2="1184.32"/><path class="fil2" d="M1264.87 1128.29c10.7303,-6.42048 23.5902,-6.47008 35.7059,-1.36063 10.8744,4.58622 21.248,13.5201 28.5437,25.7138 7.29449,12.1913 10.2626,25.5638 9.163,37.3229 -1.22008,13.0677 -7.35119,24.3685 -18.0992,30.7996 -10.728,6.4193 -23.589,6.47008 -35.7048,1.36063 -10.8732,-4.58504 -21.248,-13.5189 -28.5449,-25.7126l-0.0011811 -0.00354331c-7.29331,-12.1902 -10.2626,-25.5626 -9.16182,-37.3217 1.22126,-13.0665 7.35237,-24.3673 18.0992,-30.7984z" id="_337332816"/><path class="fil2" d="M1373.15 1241.7c7.64764,17.961 10.6028,44.5878 12.5681,73.0335l1.66299 24.0662 -20.0185 -13.4776c-23.6528,-15.9272 -45.2351,-31.7988 -56.9717,-47.4095 -15.1996,-20.2181 -16.1658,-39.2339 8.33977,-56.093l1.61811 -0.970867c26.8772,-12.8055 42.8811,-2.44725 52.8012,20.8512z" id="_337333032"/><path class="fil1" d="M609.741 950.339l222.832 0 -85.056 147.32 -137.776 0 0 -147.32zm380.737 0l99.1524 0c11.6941,24.9532 23.9114,49.6583 36.8599,73.8178 12.8079,23.8973 27.7807,50.4307 44.7,73.5024l-265.768 0 85.056 -147.32zm247.916 0l199.865 0 0 147.32 -140.38 0c0.491339,-13.5945 -2.52992,-27.8929 -6.55985,-40.637 -11.2406,-35.5524 -32.6067,-73.1812 -51.8894,-104.979l-1.03583 -1.70433z" id="_337332792"/></g></g><rect class="fil4" height="2048" width="2048"/></svg>