<?xml version="1.0" ?><!DOCTYPE svg  PUBLIC '-//W3C//DTD SVG 1.1//EN'  'http://www.w3.org/Graphics/SVG/1.1/DTD/svg11.dtd'>
<svg width="562" height="142" xml:space="preserve" xmlns="http://www.w3.org/2000/svg" xmlns:xlink="http://www.w3.org/1999/xlink"><defs id="SvgjsDefs3336"></defs><g id="SvgjsG3337" featurekey="root" fill="#ffffff" transform="matrix(1,0,0,1,0,0)"></g><g id="SvgjsG3338" featurekey="symbol1" fill="#ff7675" transform="matrix(1.7182130813598633,0,0,1.7182130813598633,9.158075131187577,14.828178682588167)"><g><polygon points="39.1,34 43.8,29.3 39.2,24.5 38.1,25.5 41.7,29.3 38,32.9  "></polygon><polygon points="25.5,24.4 20.8,29.1 25.4,33.9 26.5,32.9 22.9,29.1 26.6,25.4  "></polygon><rect x="31.5" y="19.8" transform="matrix(-0.8931 -0.4498 0.4498 -0.8931 48.0132 69.807)" width="1.5" height="18.7"></rect><path d="M47.9,39.2c0.1-0.2,0.3-0.5,0.5-0.8c1.7-3,2.5-6.5,2.4-10c-0.5-9.3-7.8-16.7-17.1-17.4C23,10.3,14,18.8,14,29.4   c0,2.1,0.4,4.2,1.1,6.3l1.5,3c0.2,0.4,0.5,0.8,0.7,1.3l0.1,0.1c2.1,3.8,3.8,7.9,5,12.3h-3.5v1.5h3.9c0.2,0.6,0.3,1.3,0.4,1.9h-3.1   v1.5h3.3c0.1,0.5,0.1,1,0.2,1.5c0.2,1.3,1.3,2.3,2.6,2.4c0.4,2.1,2.8,3.7,5.9,3.7c3,0,5.5-1.6,5.9-3.7h0.3c1.4,0,2.5-1,2.7-2.4   c0-0.2,0.1-0.4,0.1-0.6c0-0.3,0.1-0.6,0.2-0.9h3.3v-1.5h-3c0.1-0.6,0.3-1.3,0.4-1.9h3.8v-1.5h-3.4C43.7,47.7,45.6,43.2,47.9,39.2z    M18.7,39.2L18.7,39.2c-0.3-0.5-0.5-0.9-0.7-1.3l-1.4-2.7l-0.1-0.2c-0.7-1.8-1-3.8-1-5.7c0-9.7,8.2-17.5,18-16.8   c8.5,0.6,15.2,7.4,15.7,15.9c0.2,3.2-0.6,6.4-2.1,9.1L47,37.7c-0.2,0.2-0.3,0.5-0.4,0.7c-2.5,4.2-4.4,8.9-5.7,13.9H24   C22.7,47.7,21,43.3,18.7,39.2z M32.2,63.4c-2.1,0-3.9-0.9-4.3-2.2h8.6C36.1,62.4,34.3,63.4,32.2,63.4z M39.7,58   c0,0.2-0.1,0.4-0.1,0.7c-0.1,0.6-0.6,1.1-1.2,1.1H26.4c-0.6,0-1.2-0.5-1.2-1.1c-0.1-0.5-0.1-0.9-0.2-1.3h14.8   C39.8,57.5,39.7,57.7,39.7,58z M40.1,55.8H24.7c-0.1-0.6-0.3-1.3-0.4-1.9h16.2C40.4,54.5,40.2,55.2,40.1,55.8z"></path><rect x="21.8" y="7.1" transform="matrix(0.3827 0.9239 -0.9239 0.3827 21.9866 -17.1968)" width="4" height="1.5"></rect><rect x="9.3" y="19.5" transform="matrix(0.9238 0.3828 -0.3828 0.9238 8.5984 -2.7856)" width="4" height="1.5"></rect><rect x="9.1" y="37.1" transform="matrix(0.9239 -0.3827 0.3827 0.9239 -13.6298 7.1487)" width="4" height="1.5"></rect><rect x="51.7" y="37.4" transform="matrix(-0.9239 -0.3827 0.3827 -0.9239 88.7017 94.0112)" width="4" height="1.5"></rect><rect x="51.8" y="19.8" transform="matrix(-0.9238 0.3828 -0.3828 -0.9238 111.4584 18.9457)" width="4" height="1.5"></rect><rect x="40.7" y="6" transform="matrix(0.9238 0.3828 -0.3828 0.9238 6.2217 -15.2716)" width="1.5" height="4"></rect><rect x="31.9" y="0.1" width="1.5" height="8.1"></rect><rect x="10.9" y="10.6" transform="matrix(0.7071 0.7071 -0.7071 0.7071 12.4045 -7.2272)" width="8.1" height="1.5"></rect><rect x="3.4" y="28.3" width="8.1" height="1.5"></rect><rect x="13.9" y="42.7" transform="matrix(-0.7071 -0.7071 0.7071 -0.7071 -8.0449 90.2144)" width="1.5" height="8.1"></rect><rect x="46" y="46.3" transform="matrix(-0.7071 -0.7071 0.7071 -0.7071 52.2241 115.7078)" width="8.1" height="1.5"></rect><rect x="53.5" y="28.6" width="8.1" height="1.5"></rect><rect x="49.6" y="7.6" transform="matrix(0.7071 0.7071 -0.7071 0.7071 22.964 -32.1909)" width="1.5" height="8.1"></rect></g></g><g id="SvgjsG3339" featurekey="text1" fill="#ff7675" transform="matrix(4.911271095275879,0,0,4.911271095275879,123.22781774580336,-10.870503597122301)"><path d="M11.3 11.48 l-6.56 0 l0 4.16 l5.2 0 l0 2.14 l-5.2 0 l0 6.22 l-2.14 0 l0 -6.22 l-1.22 -1.06 l1.22 -1.08 l0 -6.3 l8.7 0 l0 2.14 z M24.72 21.56 l-2.76 2.44 l-4.98 0 l-2.76 -2.44 l0 -2.66 l2.14 0 l0 1.64 l1.52 1.32 l3.16 0 l1.52 -1.32 l0 -1.64 l-1.52 -1.3 l-3.76 0 l-2.76 -2.46 l0 -3.36 l2.76 -2.44 l4.66 0 l2.76 2.44 l0 2.44 l-2.14 0 l0 -1.52 l-1.42 -1.22 l-3.04 0 l-1.42 1.22 l0 1.52 l1.42 1.24 l3.86 0 l2.76 2.44 l0 3.66 z  M48.3 21.58 l-2.74 2.42 l-5.2 0 l-2.76 -2.42 l0 -3.78 l-1.22 -1.08 l1.22 -1.06 l0 -3.88 l2.76 -2.44 l5.2 0 l2.74 2.44 l0 3.06 l-2.14 0 l0 -2.1 l-1.52 -1.26 l-3.38 0 l-1.52 1.32 l0 7.76 l1.52 1.32 l3.38 0 l1.52 -1.26 l0 -1.8 l2.14 0 l0 2.76 z M63.400000000000006 16.72 l-1.22 1.06 l0 3.78 l-2.74 2.44 l-5.2 0 l-2.76 -2.44 l0 -3.78 l-1.22 -1.06 l1.22 -1.08 l0 -3.86 l2.76 -2.44 l5.2 0 l2.74 2.44 l0 3.86 z M60.040000000000006 20.56 l0 -7.76 l-1.52 -1.32 l-3.36 0 l-1.52 1.32 l0 7.76 l1.52 1.3 l3.36 0 z M76.9 21.54 l-2.74 2.44 l-7.64 0 l0 -6.2 l-1.22 -1.08 l1.22 -1.06 l0 -6.3 l7.64 0 l2.74 2.44 l0 9.76 z M74.78 20.54 l0 -7.74 l-1.54 -1.32 l-4.56 0 l0 10.36 l4.56 0 z M89.18 23.98 l-8.86 0 l0 -6.2 l-1.22 -1.08 l1.22 -1.06 l0 -6.3 l8.86 0 l0 2.14 l-6.72 0 l0 4.16 l5.18 0 l0 2.14 l-5.18 0 l0 4.06 l6.72 0 l0 2.14 z"></path></g></svg>