<?xml version="1.0" encoding="UTF-8"?>
<svg width="80px" height="80px" viewBox="0 0 80 80" version="1.1" xmlns="http://www.w3.org/2000/svg" xmlns:xlink="http://www.w3.org/1999/xlink">
    <!-- Generator: Sketch 57.1 (83088) - https://sketch.com -->
    <title>Combined Shape Copy 15</title>
    <desc>Created with Sketch.</desc>
    <g id="Page-1" stroke="none" stroke-width="1" fill="none" fill-rule="evenodd" opacity="0.12">
        <g id="Delete-modal" transform="translate(-680.000000, -412.000000)" fill="#FF595E">
            <path d="M759.103769,465.080314 C759.156755,464.693995 759.200659,464.306919 759.249103,463.920599 C759.308146,463.450199 759.370216,462.979041 759.421689,462.507883 C759.476946,462.00491 759.521606,461.502695 759.569294,461.001238 C759.603357,460.635371 759.642719,460.269504 759.672997,459.903637 C759.7169,459.370365 759.750206,458.837093 759.785026,458.303063 C759.807734,457.962951 759.834984,457.622838 759.853908,457.281969 C759.881915,456.766876 759.900082,456.251784 759.919763,455.736692 C759.934145,455.37234 759.953069,455.007988 759.962909,454.644393 C759.975778,454.175508 759.978805,453.70738 759.984861,453.240009 C759.99016,452.82642 760,452.412831 760,452 C760,451.587169 759.99016,451.17358 759.984861,450.759991 C759.978805,450.292621 759.975778,449.823735 759.962909,449.355607 C759.953069,448.992013 759.934145,448.62766 759.919763,448.263308 C759.900082,447.748216 759.881915,447.232366 759.853908,446.718032 C759.834984,446.377919 759.807734,446.037049 759.785026,445.696937 C759.750206,445.162907 759.7169,444.629635 759.672997,444.096363 C759.642719,443.730496 759.603357,443.364629 759.569294,442.998762 C759.521606,442.497305 759.476946,441.994332 759.421689,441.492117 C759.370216,441.020959 759.308146,440.550559 759.249103,440.079401 C759.200659,439.692324 759.156755,439.306005 759.103769,438.919686 C759.005365,438.199314 758.894093,437.478942 758.779036,436.757813 C758.758599,436.630555 758.741946,436.503297 758.721508,436.376796 C758.421755,434.546703 758.073557,432.718126 757.669344,430.892578 C755.741387,422.181458 750.096795,416.441967 741.49025,414.405837 C741.11026,414.298274 740.724971,414.195255 740.332113,414.101327 C739.977102,414.01573 739.611494,413.964221 739.240588,413.923317 C732.845099,412.643161 726.42236,411.993236 719.999622,412 C713.576883,411.993236 707.154144,412.643161 700.758655,413.923317 C700.388506,413.964221 700.022141,414.01573 699.66713,414.101327 C699.274272,414.195255 698.88974,414.298274 698.50975,414.405837 C689.903205,416.441967 684.258613,422.180701 682.330656,430.892578 C681.926443,432.718126 681.577488,434.546703 681.278492,436.376796 C681.257297,436.504812 681.240645,436.632827 681.21945,436.7616 C681.10515,437.4797 680.994635,438.199314 680.896231,438.918171 C680.842488,439.306005 680.799341,439.692324 680.750897,440.080158 C680.691854,440.551316 680.629784,441.022474 680.577554,441.493632 C680.522297,441.995847 680.477637,442.498062 680.430706,443.001035 C680.396643,443.365387 680.357281,443.729739 680.327003,444.095606 C680.2831,444.62812 680.249794,445.161392 680.214217,445.694664 C680.191509,446.035534 680.164259,446.377919 680.145335,446.718789 C680.117328,447.232366 680.099918,447.745944 680.080237,448.259521 C680.065098,448.62463 680.046931,448.990498 680.036334,449.355607 C680.023466,449.823735 680.021195,450.292621 680.015139,450.759991 C680.00984,451.17358 680,451.587169 680,452 C680,452.412831 680.00984,452.82642 680.015139,453.240009 C680.021195,453.70738 680.023466,454.175508 680.036334,454.644393 C680.046931,455.009503 680.065098,455.374612 680.080237,455.740479 C680.099918,456.254056 680.117328,456.767634 680.145335,457.281211 C680.164259,457.622081 680.191509,457.963708 680.214217,458.305336 C680.249794,458.838608 680.2831,459.37188 680.327003,459.904394 C680.357281,460.269504 680.396643,460.634613 680.430706,460.998965 C680.477637,461.50118 680.522297,462.003395 680.577554,462.506368 C680.629784,462.977526 680.691854,463.448684 680.750897,463.919842 C680.799341,464.306919 680.842488,464.693995 680.896231,465.081829 C680.994635,465.800686 681.10515,466.519543 681.21945,467.2384 C681.240645,467.367173 681.257297,467.495188 681.278492,467.622446 C681.577488,469.452539 681.926443,471.281874 682.330656,473.107422 C684.258613,481.819299 689.903205,487.558033 698.50975,489.594163 C698.88974,489.701726 699.274272,489.804745 699.66713,489.899431 C700.022141,489.98427 700.388506,490.035779 700.758655,490.075926 C707.154144,491.356082 713.576883,492.006764 719.999622,492 C726.42236,492.006764 732.845099,491.356082 739.240588,490.075926 C739.611494,490.035779 739.977102,489.98427 740.332113,489.899431 C740.724971,489.804745 741.11026,489.701726 741.49025,489.593405 C750.096795,487.558033 755.741387,481.818542 757.669344,473.107422 C758.073557,471.281874 758.421755,469.452539 758.721508,467.622446 C758.741946,467.495946 758.758599,467.368688 758.779036,467.242187 C758.894093,466.521058 759.005365,465.800686 759.103769,465.080314" id="Combined-Shape-Copy-15"></path>
        </g>
    </g>
</svg>