<?xml version="1.0" encoding="UTF-8"?>
<svg width="400px" height="348px" viewBox="0 0 400 348" version="1.1" xmlns="http://www.w3.org/2000/svg" xmlns:xlink="http://www.w3.org/1999/xlink">
    <!-- Generator: Sketch 57.1 (83088) - https://sketch.com -->
    <title>Group 125</title>
    <desc>Created with Sketch.</desc>
    <defs>
        <polygon id="path-1" points="0.513757384 0.783355137 104.436648 0.783355137 104.436648 100.262207 0.513757384 100.262207"></polygon>
    </defs>
    <g id="Page-1" stroke="none" stroke-width="1" fill="none" fill-rule="evenodd">
        <g id="Successfully" transform="translate(-960.000000, -240.000000)">
            <g id="Group" transform="translate(959.000000, 240.000000)">
                <g id="Group-125" transform="translate(1.000000, 0.000000)">
                    <g id="Group-3" transform="translate(270.362473, 0.061688)">
                        <mask id="mask-2" fill="white">
                            <use xlink:href="#path-1"></use>
                        </mask>
                        <g id="Clip-2"></g>
                        <path d="M99.8963753,83.3561694 L23.4801706,100.125209 C20.3577825,100.810539 17.2660981,98.8576437 16.5744136,95.7639402 L0.652025586,24.5318604 C-0.0396588486,21.4381569 1.93134328,18.3740299 5.05373134,17.6895449 L81.469936,0.919660621 C84.5923241,0.234330506 87.6848614,2.18722557 88.375693,5.28092908 L104.298081,76.5130088 C104.990618,79.6067123 103.019616,82.6708393 99.8963753,83.3561694" id="Fill-1" fill="#EBEBEB" mask="url(#mask-2)"></path>
                    </g>
                    <path d="M340.305715,59.7640816 C340.309083,59.7767573 340.10951,59.8342202 339.724009,59.9322452 C339.305245,60.0344955 338.742345,60.1713925 338.034456,60.3446264 C336.523156,60.6953193 334.394371,61.1888246 331.763241,61.7997909 C326.4029,63.0065128 319.005032,64.6720931 310.680938,66.5463991 L310.507804,66.5852711 L310.445544,66.4213327 C310.039574,65.3506629 309.60887,64.2157697 309.173049,63.0673559 C305.480085,53.2378122 302.184563,44.4654178 300.030192,38.731799 L300.179446,38.8120781 C297.796503,39.3157239 295.894584,39.7171195 294.547889,40.0018991 C293.918465,40.1269655 293.419531,40.2266806 293.045117,40.3010444 C292.703966,40.3644227 292.524861,40.3923091 292.522275,40.3804785 C292.519744,40.3686479 292.692878,40.3179453 293.028913,40.2317509 C293.400768,40.1404862 293.893731,40.019645 294.517186,39.8666921 C295.85791,39.5548712 297.750448,39.1137586 300.123156,38.5619453 L300.232324,38.536594 L300.273262,38.6422244 C302.45919,44.3623225 305.805885,53.116126 309.555139,62.9245436 C309.990959,64.0746475 310.419957,65.2086956 310.825928,66.2793655 L310.591386,66.154299 C318.928273,64.3298506 326.335522,62.7090575 331.703539,61.5344473 C334.34661,60.9750287 336.484776,60.5212404 338.002047,60.200124 C338.716759,60.0564666 339.284776,59.9423858 339.707804,59.8578814 C340.097569,59.7835176 340.303113,59.751406 340.305715,59.7640816" id="Fill-4" fill="#FAFAFA"></path>
                    <path d="M308.400171,60.4518624 C308.398465,60.4459471 308.447932,60.4298912 308.54516,60.4020048 C308.662004,60.3715833 308.805288,60.3344014 308.979275,60.288769 C309.391215,60.1890539 309.954115,60.053847 310.668827,59.8806131 C312.177569,59.5324553 314.323412,59.0364148 317.006567,58.4161531 C322.453049,57.1891502 330.069254,55.4720222 338.886311,53.4853254 L338.732793,53.6830656 C338.556247,49.8879761 338.365203,45.7836008 338.166482,41.5355682 C338.067548,39.3502862 337.969467,37.2030312 337.876503,35.1563363 L338.122132,35.3422458 C327.86968,37.590906 318.82064,39.5750677 312.300384,41.005726 C309.072239,41.6961264 306.471812,42.2521649 304.646652,42.6425749 C303.769041,42.8217241 303.079915,42.9628463 302.580128,43.0650965 C302.361791,43.1065036 302.185245,43.1394603 302.042814,43.1656567 C301.920853,43.1859377 301.858593,43.1935431 301.856878,43.1876278 C301.856034,43.1817125 301.915736,43.1622765 302.034286,43.1293198 C302.174158,43.092983 302.348145,43.0481957 302.56307,42.9924228 C303.059446,42.8741167 303.744307,42.7101783 304.615096,42.5014526 C306.433433,42.0831562 309.024478,41.4874007 312.242388,40.7462977 C318.754968,39.2835278 327.793774,37.2520437 338.033433,34.9518358 L338.268827,34.8994431 L338.279062,35.1377454 C338.374584,37.1844402 338.473518,39.3316952 338.575011,41.5169772 C338.766908,45.7658549 338.952836,49.8702302 339.124264,53.6653196 L339.13194,53.829258 L338.971599,53.8639048 C330.141748,55.7939837 322.514456,57.4620992 317.060299,58.6544553 C314.366908,59.2273946 312.211684,59.6862531 310.697825,60.0090597 C309.977143,60.1552522 309.409979,60.2701781 308.993774,60.3546824 C308.816375,60.386794 308.671386,60.4138354 308.552836,60.4349615 C308.453049,60.4518624 308.401876,60.4569326 308.400171,60.4518624" id="Fill-6" fill="#FAFAFA"></path>
                    <path d="M319.857399,72.6835261 C319.821578,72.6928216 319.761023,72.4300131 319.531599,72.0218572 C319.306439,71.6204616 318.859531,71.0652682 318.09791,70.7365463 C317.355906,70.4010641 316.265075,70.3706426 315.357612,70.9621729 C314.449296,71.5215915 313.837783,72.7485944 314.122644,73.9561613 C314.38533,75.1687984 315.46678,76.019757 316.528614,76.1422883 C317.604094,76.293551 318.578081,75.804271 319.103454,75.1882344 C319.651855,74.5679726 319.816461,73.8775723 319.847164,73.4195588 C319.878721,72.9530949 319.820725,72.6902864 319.857399,72.6835261 C319.875309,72.6776108 319.988742,72.9302787 320.006652,73.423784 C320.022857,73.9063037 319.897484,74.6651526 319.325203,75.3724539 C318.776802,76.0738398 317.703881,76.6611449 316.48,76.5124173 C315.275736,76.3974914 314.024563,75.434142 313.72435,74.0440458 C313.397697,72.661555 314.114968,71.2613182 315.153774,70.6486618 C316.196844,69.9962884 317.420725,70.0740324 318.217313,70.477118 C319.039488,70.8742884 319.480426,71.5072258 319.673177,71.9508735 C319.870192,72.4038168 319.875309,72.680991 319.857399,72.6835261" id="Fill-8" fill="#FAFAFA"></path>
                    <path d="M338.953092,68.4442819 C338.916418,68.4535774 338.855864,68.1916139 338.626439,67.782613 C338.401279,67.3820625 337.954371,66.826024 337.192751,66.4981472 C336.450746,66.162665 335.359915,66.1313984 334.452452,66.7229287 C333.544136,67.2831924 332.932623,68.5093502 333.217484,69.7169171 C333.480171,70.9303993 334.56162,71.7805128 335.623454,71.9038891 C336.699787,72.0543068 337.672921,71.5650268 338.198294,70.9489902 C338.746695,70.3295735 338.911301,69.6391731 338.942857,69.1811596 C338.973561,68.7146957 338.915565,68.4510422 338.953092,68.4442819 C338.970149,68.4383666 339.083582,68.6910345 339.101493,69.1845398 C339.117697,69.6670595 338.992324,70.4267535 338.420043,71.1332096 C337.871642,71.8354406 336.799574,72.4227457 335.575693,72.2731731 C334.370576,72.1582472 333.119403,71.1948978 332.820043,69.8056466 C332.49339,68.4223108 333.209808,67.0229191 334.249467,66.4094176 C335.291684,65.7570442 336.515565,65.8347882 337.312154,66.2378738 C338.134328,66.6350442 338.575267,67.2679816 338.768017,67.7116293 C338.965032,68.1654176 338.971002,68.4425918 338.953092,68.4442819" id="Fill-10" fill="#FAFAFA"></path>
                    <path d="M344.249382,30.6537766 C345.297569,35.287149 342.355139,39.8841845 337.679659,40.9218977 C333.003326,41.9596109 328.363667,39.0459016 327.316333,34.4125292 C326.268998,29.7800018 329.209723,25.1829663 333.886055,24.1444081 C338.561535,23.1066949 343.201194,26.0212492 344.249382,30.6537766" id="Fill-12" fill="#FAFAFA"></path>
                    <path d="M339.671812,28.3814552 C339.720426,28.4101867 339.41339,29.0177728 338.879488,29.977742 C338.345586,30.9377112 337.584819,32.2500634 336.721706,33.685792 C336.397612,34.2173242 336.086311,34.7302655 335.792921,35.2127852 L335.695693,35.3733434 L335.53194,35.2846139 C333.342601,34.0846524 331.788657,33.1669354 331.832154,33.0866563 C331.874797,33.0063771 333.503795,33.7897323 335.717868,34.9440614 L335.458593,35.0158901 C335.746013,34.5299902 336.053049,34.0145138 336.37032,33.4787563 C337.234286,32.0430278 338.034286,30.7543368 338.631301,29.8315495 C339.229168,28.9096072 339.622345,28.3527237 339.671812,28.3814552" id="Fill-14" fill="#E0E0E0"></path>
                    <path d="M48.0665245,127.518132 C46.4929638,121.996619 39.2511727,122.532377 39.2511727,122.532377 L39.4498934,126.373098 C43.6366738,125.657347 46.2379531,130.518036 46.2379531,130.518036 L48.0665245,127.518132 Z" id="Fill-16" fill="#E0E0E0"></path>
                    <path d="M154.412281,63.7743191 C162.813134,66.2959283 168.040426,56.6962364 168.040426,56.6962364 L162.929126,53.8095685 C160.430192,59.6910699 152.039574,59.01081 152.039574,59.01081 L154.412281,63.7743191 Z" id="Fill-18" fill="#E0E0E0"></path>
                    <path d="M224.148486,115.306665 C222.523753,110.715545 216.423113,111.547912 216.423113,111.547912 L216.796674,114.787808 C220.301151,113.963046 222.761706,117.940665 222.761706,117.940665 L224.148486,115.306665 Z" id="Fill-20" fill="#E0E0E0"></path>
                    <path d="M127.79113,7.78065166 C126.166397,3.19037647 120.065757,4.02189907 120.065757,4.02189907 L120.438465,7.26179507 C123.943795,6.43703281 126.40435,10.4154967 126.40435,10.4154967 L127.79113,7.78065166 Z" id="Fill-22" fill="#E0E0E0"></path>
                    <path d="M55.0057143,66.5185972 C53.3801279,61.928322 47.2803412,62.7598446 47.2803412,62.7598446 L47.653049,65.9997406 C51.1575267,65.1749784 53.6189339,69.1534422 53.6189339,69.1534422 L55.0057143,66.5185972 Z" id="Fill-24" fill="#EBEBEB"></path>
                    <path d="M39.7126652,23.6054395 C34.8674627,24.3930198 34.633774,30.4891622 34.633774,30.4891622 L37.918209,30.6894374 C37.7084009,27.1267349 42.0896375,25.4172123 42.0896375,25.4172123 L39.7126652,23.6054395 Z" id="Fill-26" fill="#EBEBEB"></path>
                    <path d="M4.83121535,166.404574 C13.2320682,168.926183 18.4593603,159.326491 18.4593603,159.326491 L13.3480597,156.439823 C10.8491258,162.321325 2.45850746,161.641065 2.45850746,161.641065 L4.83121535,166.404574 Z" id="Fill-28" fill="#EBEBEB"></path>
                    <path d="M244.156077,64.3049218 C244.724094,60.4498343 240.085288,58.7952395 240.085288,58.7952395 L239.135181,61.2298092 C241.930917,61.9354204 242.184222,65.6629064 242.184222,65.6629064 L244.156077,64.3049218 Z" id="Fill-30" fill="#E0E0E0"></path>
                    <path d="M216.226866,21.9706187 C212.950959,24.1246341 214.805117,28.6523761 214.805117,28.6523761 L217.269083,27.7270536 C215.932623,25.1936138 218.563753,22.5182068 218.563753,22.5182068 L216.226866,21.9706187 Z" id="Fill-32" fill="#EBEBEB"></path>
                    <polygon id="Fill-34" fill="#F5F5F5" points="358.342687 108.241004 347.001109 141.33797 380.54226 147.941984 382.472324 112.992683"></polygon>
                    <path d="M378.759318,117.388767 C378.79855,117.404823 378.696205,117.758051 378.382345,118.337751 C378.06678,118.913225 377.540554,119.722777 376.693646,120.561905 C375.851855,121.395117 374.660384,122.253681 373.138849,122.756482 C371.624989,123.271114 369.810064,123.368294 368.017313,123.01422 C366.22371,122.678738 364.564009,121.960451 363.339275,120.929499 C362.096631,119.912066 361.358038,118.626756 360.937569,117.524819 C360.517953,116.410207 360.394286,115.451928 360.361876,114.798709 C360.332878,114.141266 360.396844,113.778742 360.439488,113.781197 C360.546951,113.768602 360.46678,115.255033 361.352068,117.359191 C361.804094,118.390143 362.535011,119.564754 363.710277,120.485851 C364.870192,121.420469 366.422431,122.078757 368.134158,122.399029 C369.843326,122.737046 371.535437,122.659302 372.96145,122.208049 C374.393433,121.766936 375.541407,120.998792 376.38661,120.240788 C378.077868,118.691824 378.670618,117.333839 378.759318,117.388767" id="Fill-36" fill="#FFFFFF"></path>
                    <g id="Group-40" transform="translate(0.000000, 346.529440)" fill="#A5AAB2">
                        <path d="M390.742942,0.522067749 C390.742942,0.643753984 303.265757,0.74262405 195.380896,0.74262405 C87.4593603,0.74262405 8.52878465e-05,0.643753984 8.52878465e-05,0.522067749 C8.52878465e-05,0.400381514 87.4593603,0.301511449 195.380896,0.301511449 C303.265757,0.301511449 390.742942,0.400381514 390.742942,0.522067749" id="Fill-38"></path>
                    </g>
                    <polygon id="Fill-41" fill="#FAFAFA" points="14.3539446 247.814017 222.33177 247.814017 222.33177 86.4986319 14.3539446 86.4986319"></polygon>
                    <path d="M222.33194,247.814271 C222.330235,246.299953 222.258593,183.815762 222.147719,86.4988854 L222.33194,86.6814148 C163.065416,86.6924004 91.4645629,86.705076 14.3720256,86.7185967 L14.3541151,86.7185967 L14.5767164,86.4988854 C14.5681876,144.669976 14.5605117,199.678914 14.5536887,247.814271 L14.3541151,247.617376 C137.81936,247.733992 220.582687,247.812581 222.33194,247.814271 C220.583539,247.815961 137.81936,247.895395 14.3541151,248.012011 L14.1553945,248.012011 L14.1545416,247.814271 C14.1477186,199.678914 14.1408955,144.669976 14.1323667,86.4988854 L14.1323667,86.2791742 L14.3541151,86.2791742 L14.3720256,86.2791742 C91.4645629,86.2926949 163.065416,86.3062156 222.33194,86.3172011 L222.516162,86.3172011 L222.516162,86.4988854 C222.405288,183.815762 222.333646,246.300798 222.33194,247.814271" id="Fill-43" fill="#263238"></path>
                    <path d="M120.065586,145.717069 C103.367932,145.717069 89.7824307,159.177764 89.7824307,175.722021 C89.7824307,192.266279 103.367932,205.726129 120.065586,205.726129 C136.763241,205.726129 150.348742,192.266279 150.348742,175.722021 C150.348742,159.177764 136.763241,145.717069 120.065586,145.717069 M120.065586,209.178131 C101.446397,209.178131 86.2984222,194.169317 86.2984222,175.722021 C86.2984222,157.273036 101.446397,142.265067 120.065586,142.265067 C138.685629,142.265067 153.832751,157.273036 153.832751,175.722021 C153.832751,194.169317 138.685629,209.178131 120.065586,209.178131" id="Fill-44" fill="#FF595E"></path>
                    <path d="M117.616546,186.031972 C117.205458,186.031972 116.796077,185.888315 116.46516,185.601845 C113.512495,183.026998 108.460896,178.562635 107.812708,177.599285 C107.278806,176.804944 107.495437,175.73343 108.295437,175.205277 C109.086908,174.680506 110.150448,174.885851 110.692026,175.655686 C111.162814,176.240456 114.363667,179.144024 117.573902,181.965624 L134.672409,165.88614 C135.368358,165.229541 136.471983,165.256583 137.135522,165.948673 C137.798209,166.639919 137.769211,167.733405 137.071557,168.389158 L118.815693,185.557058 C118.481365,185.873949 118.048955,186.031972 117.616546,186.031972" id="Fill-45" fill="#FF595E"></path>
                    <path d="M222.33194,102.258013 C222.33194,102.3797 175.887591,102.477725 118.609126,102.477725 C61.3101919,102.477725 14.8760768,102.3797 14.8760768,102.258013 C14.8760768,102.136327 61.3101919,102.038302 118.609126,102.038302 C175.887591,102.038302 222.33194,102.136327 222.33194,102.258013" id="Fill-46" fill="#263238"></path>
                    <path d="M22.9216205,94.1562453 C22.9216205,94.8170691 22.3808955,95.3528266 21.7139446,95.3528266 C21.0478465,95.3528266 20.5071215,94.8170691 20.5071215,94.1562453 C20.5071215,93.4962665 21.0478465,92.960509 21.7139446,92.960509 C22.3808955,92.960509 22.9216205,93.4962665 22.9216205,94.1562453" id="Fill-47" fill="#263238"></path>
                    <path d="M27.4250746,94.1562453 C27.4250746,94.8170691 26.8843497,95.3528266 26.2182516,95.3528266 C25.5513006,95.3528266 25.0105757,94.8170691 25.0105757,94.1562453 C25.0105757,93.4962665 25.5513006,92.960509 26.2182516,92.960509 C26.8843497,92.960509 27.4250746,93.4962665 27.4250746,94.1562453" id="Fill-48" fill="#263238"></path>
                    <path d="M31.8597868,94.1562453 C31.8597868,94.8170691 31.3190618,95.3528266 30.6521109,95.3528266 C29.9860128,95.3528266 29.4452878,94.8170691 29.4452878,94.1562453 C29.4452878,93.4962665 29.9860128,92.960509 30.6521109,92.960509 C31.3190618,92.960509 31.8597868,93.4962665 31.8597868,94.1562453" id="Fill-49" fill="#263238"></path>
                    <path d="M359.053134,194.875266 C359.053134,194.875266 369.40452,188.635466 371.737143,190.468365 C375.103454,193.115041 376.225842,197.581939 376.225842,197.581939 C376.225842,197.581939 381.692793,176.921476 386.909851,177.705676 C389.902601,178.154394 388.433945,180.464742 387.09322,183.365776 C385.848017,186.058084 383.723497,195.943401 383.723497,195.943401 C383.723497,195.943401 393.615181,184.31476 396.522644,184.52433 C398.771684,184.686579 399.094925,186.647079 395.859957,189.789795 C392.625842,192.933356 387.251855,202.835574 387.251855,202.835574 C387.251855,202.835574 394.181493,196.435216 397.043753,196.400569 C399.326908,196.371837 400.801535,197.942773 397.846311,200.485508 C394.89194,203.026553 390.420299,204.933816 388.034797,209.531697 C385.094925,215.199402 378.827122,229.326836 378.827122,229.326836 L356.88597,221.630182 C356.88597,221.630182 353.314968,207.209518 353.172537,203.705123 C353.172537,203.705123 353.473603,196.301699 353.430959,194.983431 C353.388316,193.664319 356.917527,193.327146 357.988742,195.858051 C359.059957,198.388956 358.573817,201.044082 359.007932,202.727408 C359.4429,204.410734 360.215608,205.970684 361.457399,206.723618 C362.700043,207.475706 365.86081,207.528099 366.668486,206.596861 C367.476162,205.666469 368.454414,202.95726 368.667633,201.292525 C368.880853,199.626099 368.606226,196.994634 368.606226,196.994634 C368.606226,196.994634 359.497484,200.662122 359.053134,194.875266" id="Fill-50" fill="#FFBE9D"></path>
                    <path d="M112.535864,262.161838 L97.2898081,256.503428 C97.2898081,256.503428 81.7682729,247.498647 78.8949254,250.697136 C78.8949254,250.697136 75.8245629,249.247887 74.4599574,252.492008 C73.6701919,254.370539 76.2782942,257.100029 76.2782942,257.100029 C76.2782942,257.100029 75.4663539,257.915496 76.7516418,260.675407 C78.0369296,263.435319 92.7704051,272.14011 92.7704051,272.14011 C92.7704051,272.14011 111.926055,282.4902 119.671045,287.440464 L133.036503,269.431746 L131.178081,268.743036 C131.178081,268.743036 130.074456,259.767831 126.366994,257.374668 C122.332026,254.770245 117.464648,247.724274 116.39258,244.964362 C115.321365,242.204451 110.178507,243.478776 111.036503,249.210705 C111.893646,254.942633 116.39258,256.429065 115.964435,260.25035 C115.53629,264.072481 112.535864,262.161838 112.535864,262.161838" id="Fill-51" fill="#FFBE9D"></path>
                    <path d="M89.1646055,264.256278 C89.1049041,264.361909 86.1343284,262.826465 82.5317697,260.824557 C78.9275053,258.823495 76.0558635,257.115662 76.115565,257.010032 C76.1761194,256.903556 79.1449893,258.439845 82.7492537,260.440908 C86.3518124,262.44197 89.224307,264.149803 89.1646055,264.256278" id="Fill-52" fill="#EB996E"></path>
                    <path d="M96.6043497,260.009598 C96.5787633,260.062835 95.5373987,259.645384 93.8683156,258.930477 C92.201791,258.211345 89.914371,257.179548 87.4418763,255.928038 C84.9693817,254.673994 82.7902772,253.420795 81.2661834,252.432094 C80.5062687,251.932674 79.8990192,251.519448 79.4973134,251.208472 C79.0921962,250.902566 78.8764179,250.721727 78.8943284,250.696375 C78.9344136,250.640603 79.8742857,251.250724 81.4316418,252.167596 C82.9898507,253.084468 85.1808955,254.286964 87.6440085,255.535938 C90.1079744,256.784067 92.3689552,257.857272 94.0005117,258.647388 C95.633774,259.434968 96.6316418,259.953825 96.6043497,260.009598" id="Fill-53" fill="#EB996E"></path>
                    <path d="M99.8122814,268.330485 C99.7952239,268.357527 99.3150533,268.097253 98.461322,267.604593 C97.5470362,267.06292 96.3350959,266.345479 94.8689979,265.478464 L94.8280597,265.454803 L94.8058849,265.406636 C94.1321109,263.964992 93.2954371,262.268145 92.2173987,260.496089 C91.6715565,259.624849 91.0728358,258.684316 90.2779531,257.957579 C89.485629,257.228307 88.2233689,257.10155 87.2741151,257.733642 C87.0702772,257.847723 86.8246482,258.088561 86.7956503,258.16715 C86.818678,258.203487 86.8161194,258.210247 86.8306183,258.26771 L86.8928785,258.455309 C86.9304051,258.579531 86.9790192,258.706287 87.0259275,258.832199 C87.2110021,259.335845 87.4114286,259.83273 87.6075906,260.32032 C88.0101493,261.292965 88.3999147,262.236033 88.7751812,263.14192 C89.5325373,264.932566 90.2284861,266.577866 90.8374414,268.014439 L90.8084435,267.970497 C92.061322,269.424817 93.0975693,270.628158 93.8745416,271.529819 C94.1986354,271.922764 94.4689979,272.248951 94.6933049,272.519365 C94.8758209,272.749217 94.966226,272.875973 94.9534328,272.886959 C94.9414925,272.897944 94.8255011,272.793159 94.6191045,272.583588 C94.3760341,272.32923 94.0834968,272.023325 93.7321109,271.654886 C92.9269936,270.777731 91.8523667,269.607346 90.5551386,268.192743 L90.538081,268.174152 L90.5261407,268.147956 C89.8915991,266.739269 89.1675053,265.10242 88.3913859,263.302478 C88.0092964,262.396591 87.611855,261.454368 87.2024733,260.482568 C87.0028998,259.993288 86.8007676,259.497248 86.6105757,258.981771 C86.5619616,258.85417 86.5133475,258.726568 86.4707036,258.590516 L86.4041791,258.387706 C86.3802985,258.314187 86.3640938,258.184051 86.3598294,258.086026 C86.4391471,257.818992 86.5611087,257.764064 86.6702772,257.636463 C86.7862687,257.535057 86.9073774,257.442948 87.0353092,257.362668 C87.5828571,257.017891 88.2310448,256.839587 88.8732623,256.89536 C89.5188913,256.936767 90.1048188,257.242672 90.5611087,257.628857 C91.4421322,258.446859 92.0161194,259.389927 92.5696375,260.285673 C93.6459701,262.094911 94.4562047,263.806969 95.1018337,265.279034 L95.0387207,265.207205 C96.4741151,266.124077 97.6604691,266.881236 98.5551386,267.45333 C99.3807249,267.993313 99.829339,268.304289 99.8122814,268.330485" id="Fill-54" fill="#EB996E"></path>
                    <path d="M115.097825,268.475748 C115.077356,268.536591 114.366055,268.339696 113.224904,268.021115 C112.085458,267.714364 110.499104,267.275787 108.717441,267.23269 C106.940043,267.192128 105.357953,267.687323 104.372026,268.286459 C103.371599,268.879679 102.929808,269.483885 102.868401,269.431492 C102.830874,269.414591 103.191642,268.721656 104.202303,268.02534 C105.195906,267.323954 106.860725,266.749325 108.726823,266.792422 C110.586951,266.8389 112.19548,267.339165 113.318721,267.724505 C114.44452,268.12083 115.116588,268.422511 115.097825,268.475748" id="Fill-55" fill="#EB996E"></path>
                    <path d="M113.951812,264.485707 C114.053305,264.561761 113.673774,265.21498 113.306183,266.054108 C112.93177,266.891546 112.703198,267.609833 112.577825,267.587016 C112.460981,267.56927 112.501919,266.769014 112.89936,265.876649 C113.292537,264.984283 113.859701,264.412189 113.951812,264.485707" id="Fill-56" fill="#EB996E"></path>
                    <path d="M201.822857,192.67266 C202.874456,185.553171 211.241194,175.345048 218.645885,175.334062 C214.401962,169.238765 214.33629,160.66242 218.487249,154.50628 C221.344392,150.270078 225.951642,147.156093 227.905586,142.460188 C230.116247,137.147401 228.419872,131.145058 228.630533,125.419045 C228.939275,117.03537 233.340981,109.380123 237.627548,102.098385 C241.552495,95.4309931 246.340554,88.1222136 254.065928,86.4845197 C258.953774,85.4484966 264.023284,86.9771799 268.61177,88.9131741 C290.569979,98.1799189 307.645458,117.709715 313.505586,140.25716 C314.908571,145.655296 315.847591,151.494546 319.644606,155.665679 C323.665075,160.083566 330.706439,162.480108 331.913262,168.25936 C332.778934,172.403452 330.09322,176.569515 330.496631,180.780366 C330.834371,184.307577 337.501322,194.588374 339.038209,197.799538 C341.686397,203.333727 340.728614,209.312408 338.032665,214.824625 C335.336716,220.335998 328.474456,225.704558 322.384904,227.205355 L254.323497,204.733963 C247.920085,208.345678 241.541407,222.318469 234.190448,223.177033 C226.839488,224.034752 217.869765,227.205355 210.796844,219.536587 C203.383625,211.498535 200.770405,199.79215 201.822857,192.67266" id="Fill-57" fill="#263238"></path>
                    <path d="M314.678465,125.598616 C313.916844,131.241815 315.477612,140.571938 318.591471,145.39291 C320.680171,148.628581 324.166738,150.734429 327.606397,152.585919 C331.046055,154.436564 334.648614,156.212845 337.256716,159.070781 C339.863966,161.930408 341.261834,166.217312 339.519403,169.641428 C345.650746,171.905299 348.401279,179.64505 346.151386,185.630492 C343.902345,191.615934 337.733475,195.64172 331.291684,196.838301 L303.218337,188.471528 L297.054584,152.978019 L313.258422,125.598616" id="Fill-58" fill="#263238"></path>
                    <path d="M318.12318,161.783624 C318.129296,161.770948 318.317783,161.852917 318.67258,162.020236 C319.018849,162.20361 319.569808,162.409801 320.205203,162.809506 C321.507548,163.554835 323.305416,164.846061 325.126311,166.87332 C326.05339,167.872161 326.912239,169.105079 327.74806,170.481654 C328.518209,171.892032 329.296887,173.450292 329.791557,175.213052 C330.884094,178.687025 331.123753,182.908861 329.867463,187.058869 L329.764264,186.803666 C331.380469,187.696031 332.941237,188.860501 334.332281,190.242147 C337.916077,193.764287 339.962985,198.342732 340.454243,202.626256 C340.931855,206.942738 339.894755,210.853598 338.444861,213.755477 C336.984733,216.684397 335.174072,218.677009 333.835053,219.901477 C333.151045,220.505683 332.600938,220.951865 332.200938,221.218899 C331.808614,221.496918 331.599659,221.635505 331.590277,221.62283 C331.580896,221.610154 331.773646,221.447061 332.146354,221.14876 C332.527591,220.860601 333.056375,220.394982 333.71565,219.77641 C335.008614,218.524056 336.759574,216.524684 338.161706,213.62027 C339.555309,210.742897 340.536972,206.893725 340.04742,202.672734 C339.545075,198.482164 337.52887,194.00259 334.018422,190.553123 C332.655522,189.199363 331.129723,188.058555 329.551045,187.18309 L329.397527,187.098586 L329.448699,186.927887 C330.682814,182.879285 330.471301,178.745333 329.420554,175.322062 C328.946354,173.586344 328.193262,172.04752 327.449552,170.648973 C326.639318,169.285918 325.808614,168.05976 324.907122,167.062609 C323.14081,165.036195 321.390704,163.722153 320.124179,162.942178 C319.505842,162.524727 318.970235,162.29741 318.636759,162.092065 C318.293902,161.90193 318.117356,161.796299 318.12318,161.783624" id="Fill-59" fill="#455A64"></path>
                    <path d="M235.080085,198.540134 C235.080085,198.540134 222.537655,202.320013 218.140213,208.656992 C215.029765,213.139102 183.183284,281.473528 183.183284,281.473528 L134.839574,267.071455 L117.555139,289.690729 L171.343625,319.230908 C181.316333,324.708479 193.445117,324.655241 203.368358,319.091476 C208.871983,316.007068 213.355565,311.410032 216.281791,305.856408 L229.957697,279.893297 L235.080085,198.540134 Z" id="Fill-60" fill="#FF595E"></path>
                    <path d="M222.245288,347.37423 L229.794115,315.137518 L224.074712,291.728974 C220.394542,279.676121 217.237186,260.042385 221.239744,244.228245 L234.609467,198.754775 L249.308827,192.056962 L282.94806,186.324188 C284.241876,186.750935 318.123326,196.232321 318.123326,196.232321 C322.814158,197.312286 324.696461,198.052544 324.696461,198.052544 L328.581322,222.94583 L316.899446,263.975217 L311.813731,304.855876 L322.988145,347.37423 L222.245288,347.37423 Z" id="Fill-61" fill="#FF595E"></path>
                    <path d="M241.6858,195.530512 L251.441023,191.204736 L295.406055,191.812322 L305.80435,197.791848 C305.80435,197.791848 269.482814,237.513108 260.366397,238.825461 C237.439318,242.12958 241.6858,195.530512 241.6858,195.530512" id="Fill-62" fill="#FFBE9D"></path>
                    <path d="M323.741151,197.708273 C323.741151,197.708273 330.327079,199.176114 335.972281,211.108125 C341.617484,223.040981 350.742431,256.249493 350.742431,256.249493 L354.64435,221.057665 L386.431983,224.521497 L380.279318,308.630347 C380.279318,308.630347 369.031557,324.79349 350.213646,323.301989 C331.397441,321.809642 307.509168,262.877168 307.509168,262.877168 L323.741151,197.708273 Z" id="Fill-63" fill="#FF595E"></path>
                    <path d="M345.782772,299.223248 C345.775096,299.222395 345.77339,299.153947 345.775949,299.019585 C345.783625,298.858182 345.791301,298.662977 345.801535,298.422984 C345.83565,297.863566 345.881706,297.098801 345.941407,296.134607 C346.061663,294.14622 346.300469,291.274763 346.633092,287.729806 C347.294925,280.639048 348.508571,270.872883 349.993433,260.112946 C351.479147,249.34794 352.740554,239.596985 353.481706,232.518058 C353.854414,228.979861 354.140981,226.114319 354.314968,224.132693 C354.407932,223.170189 354.482132,222.408805 354.537569,221.850231 C354.564861,221.611929 354.587036,221.417569 354.606652,221.257856 C354.62371,221.125184 354.637356,221.056735 354.645032,221.057573 C354.651855,221.057573 354.654414,221.126874 354.651002,221.261236 C354.645032,221.421794 354.636503,221.617844 354.626269,221.856991 C354.592154,222.41641 354.545245,223.181174 354.487249,224.145369 C354.365288,226.13291 354.126482,229.004367 353.794712,232.550169 C353.132026,239.640927 351.91838,249.407938 350.433518,260.171254 C348.948657,270.932036 347.687249,280.68299 346.945245,287.761073 C346.574243,291.299269 346.286823,294.165656 346.113689,296.148128 C346.019019,297.109787 345.944819,297.871171 345.891087,298.429745 C345.862942,298.668047 345.839915,298.862407 345.822004,299.022965 C345.803241,299.155637 345.791301,299.224085 345.782772,299.223248" id="Fill-64" fill="#263238"></path>
                    <path d="M183.732878,299.622692 C183.704733,299.634523 183.581066,299.410586 183.38064,298.993135 C183.176802,298.578219 182.920938,297.958802 182.6429,297.179672 C182.082559,295.625637 181.500043,293.396413 181.250149,290.879029 C181.007079,288.3608 181.147804,286.063128 181.395991,284.429659 C181.518806,283.613347 181.649296,282.956748 181.769552,282.510565 C181.884691,282.063538 181.963156,281.820165 181.993006,281.825975 C182.063795,281.841291 181.871898,282.840977 181.708145,284.467686 C181.541834,286.093549 181.453134,288.356575 181.69194,290.837622 C181.938422,293.316134 182.463795,295.520852 182.941407,297.084182 C183.417313,298.650047 183.800256,299.594806 183.732878,299.622692" id="Fill-65" fill="#263238"></path>
                    <path d="M189.079659,300.402498 C189.054925,300.420244 188.857058,300.197153 188.519318,299.774631 C188.176461,299.356335 187.720171,298.720017 187.193092,297.90962 C186.135522,296.292208 184.863028,293.921861 183.880512,291.136598 C182.905672,288.347956 182.417825,285.70635 182.233603,283.788947 C182.139787,282.828978 182.098849,282.049848 182.104819,281.511555 C182.105672,280.972418 182.120171,280.674117 182.150874,280.673268 C182.225075,280.670737 182.280512,281.858868 182.544904,283.751765 C182.807591,285.643817 183.337228,288.2381 184.300128,290.992096 C185.269851,293.741867 186.480938,296.102073 187.460896,297.746527 C188.439147,299.394362 189.13936,300.358556 189.079659,300.402498" id="Fill-66" fill="#263238"></path>
                    <path d="M226.711215,225.257109 C226.726567,225.261417 226.670277,225.495494 226.550874,225.939142 C226.415267,226.419127 226.234456,227.062204 226.008443,227.870066 C225.518038,229.586349 224.82806,231.998947 223.981151,234.959979 C222.329126,240.952181 220.029765,249.275013 218.928699,258.697245 C218.378593,263.403291 218.268571,267.933569 218.741919,272.008367 C219.178593,276.086546 220.086908,279.688966 220.980725,282.663518 C221.880512,285.638916 222.731684,288.012642 223.3142,289.652871 C223.594797,290.443832 223.818252,291.073389 223.985416,291.543233 C224.13467,291.97674 224.206311,292.207437 224.192665,292.212593 C224.178166,292.217578 224.07838,291.997867 223.900981,291.575345 C223.715053,291.112261 223.46516,290.491154 223.151301,289.712024 C222.519318,288.088696 221.621237,285.729335 220.680512,282.753093 C219.744904,279.781076 218.798209,276.1626 218.335096,272.053155 C217.835309,267.947934 217.934243,263.373715 218.486908,258.648233 C219.593945,249.180368 221.948742,240.849931 223.67838,234.875475 C224.560256,231.886557 225.312495,229.480718 225.842132,227.820208 C226.103113,227.022487 226.310362,226.38786 226.464733,225.912946 C226.612281,225.478593 226.695864,225.252122 226.711215,225.257109" id="Fill-67" fill="#263238"></path>
                    <path d="M315.599659,280.673642 C315.592836,280.676906 315.553603,280.606767 315.48452,280.467335 C315.406055,280.304242 315.307974,280.098051 315.186866,279.842848 C314.919915,279.258923 314.549765,278.450217 314.079829,277.421799 C313.609893,276.36634 313.008614,275.0861 312.367249,273.575162 C311.751471,272.046479 311.052964,270.31414 310.281962,268.401807 C309.531429,266.475953 308.809041,264.329543 307.980896,262.044546 C307.619275,260.884302 307.244009,259.685185 306.858507,258.449732 C306.66661,257.83116 306.473006,257.204138 306.275991,256.567821 C306.093475,255.928123 305.933134,255.271524 305.757441,254.611546 C304.328017,249.342701 303.109254,243.420637 302.751045,237.112389 C302.362132,230.813436 302.96597,224.726589 304.588998,219.480561 C306.108827,214.19904 308.780896,209.865658 311.62951,206.838713 C314.475565,203.778811 317.441023,202.012671 319.563838,201.072982 C320.635053,200.611589 321.487932,200.300613 322.083241,200.14766 C322.358721,200.071606 322.579616,200.009918 322.756162,199.960905 C322.907122,199.921188 322.986439,199.905133 322.988208,199.912738 C322.990704,199.919498 322.91565,199.95161 322.768102,200.004848 C322.595821,200.064001 322.37919,200.13921 322.110533,200.233009 C321.526311,200.412159 320.688785,200.746796 319.636333,201.227625 C317.551898,202.208721 314.645288,203.995987 311.86064,207.049129 C309.07258,210.072693 306.46533,214.358753 304.981322,219.596331 C303.394968,224.800953 302.809041,230.827802 303.194542,237.087038 C303.550192,243.353879 304.750192,249.251436 306.153177,254.50845 C306.324606,255.167584 306.494328,255.818267 306.662345,256.4605 C306.854243,257.095973 307.045288,257.72215 307.232921,258.339032 C307.610746,259.572795 307.976631,260.771911 308.332281,261.930466 C309.142516,264.215463 309.845288,266.362718 310.575352,268.292797 C311.322473,270.2102 311.999659,271.948454 312.596674,273.480517 C313.215011,274.99906 313.793262,276.289441 314.237612,277.354196 C314.675139,278.395289 315.019701,279.214981 315.267889,279.806511 C315.373646,280.06932 315.458934,280.280581 315.526311,280.447899 C315.581748,280.594092 315.607335,280.670146 315.599659,280.673642" id="Fill-68" fill="#263238"></path>
                    <path d="M303.485288,242.577284 C299.330064,262.054687 299.274627,282.092354 306.428571,300.694292 C306.843923,301.774257 308.485714,305.610754 309.650746,305.667371 C311.127079,305.7392 311.826439,303.918977 312.082303,302.476488 C312.607676,299.512076 312.928358,294.632796 313.453731,291.668384 C314.111301,287.955264 315.002559,279.361174 315.002559,279.361174 C315.002559,279.361174 311.565458,271.568184 310.054158,267.387755 C307.251599,259.633638 304.88145,252.231904 303.571429,243.192475" id="Fill-69" fill="#000000"></path>
                    <path d="M300.091258,318.035341 C300.104904,318.044636 299.990618,318.218715 299.760341,318.544057 C299.501919,318.90151 299.162473,319.370509 298.740299,319.954434 C298.51258,320.262875 298.263539,320.600892 297.993177,320.968486 C297.70661,321.328474 297.366311,321.696068 297.015778,322.104224 C296.296802,322.90448 295.532623,323.86783 294.528785,324.783856 C294.040085,325.257081 293.530917,325.752276 293.000426,326.266062 C292.463966,326.777314 291.848188,327.243777 291.240938,327.762634 C290.046055,328.824853 288.628571,329.780597 287.166738,330.825916 C284.161194,332.797402 280.672921,334.696214 276.801706,336.220672 C272.910021,337.694428 269.04307,338.634961 265.484009,339.198605 C263.693817,339.409866 261.996588,339.655773 260.390618,339.675209 C259.590618,339.700561 258.817058,339.769854 258.0742,339.752953 C257.331343,339.730137 256.618337,339.707321 255.936887,339.686195 C254.572281,339.68535 253.350959,339.48761 252.27548,339.381134 C251.739019,339.316066 251.236674,339.273814 250.780384,339.19945 C250.329211,339.110721 249.915565,339.028751 249.53774,338.954387 C248.828145,338.80735 248.258422,338.689889 247.822601,338.600314 C247.431983,338.51412 247.228998,338.462572 247.231533,338.447362 C247.234968,338.432996 247.444776,338.455812 247.840512,338.513275 C248.278891,338.581723 248.852878,338.672988 249.566738,338.785379 C249.945416,338.848757 250.359915,338.917206 250.811087,338.992414 C251.267377,339.053258 251.768017,339.082834 252.303625,339.136072 C253.376546,339.218886 254.591045,339.394655 255.947974,339.375219 C256.626013,339.387895 257.333902,339.399725 258.071642,339.414091 C258.811087,339.421696 259.576972,339.343952 260.371855,339.310996 C261.965032,339.276349 263.647761,339.017766 265.422601,338.798054 C268.949254,338.216665 272.781237,337.271906 276.640512,335.809981 C280.479318,334.298199 283.94371,332.425583 286.938166,330.489589 C288.39403,329.461171 289.808955,328.524018 291.006397,327.481235 C291.613646,326.972519 292.23113,326.51535 292.770149,326.015085 C293.304051,325.511439 293.817484,325.025539 294.307889,324.562455 C295.319403,323.667554 296.09467,322.723641 296.828145,321.942821 C297.185501,321.544805 297.534328,321.186507 297.828571,320.835814 C298.109168,320.479206 298.367591,320.149639 298.602985,319.849649 C299.052452,319.287695 299.412367,318.836442 299.687846,318.492509 C299.940299,318.184913 300.078465,318.02689 300.091258,318.035341" id="Fill-70" fill="#263238"></path>
                    <path d="M293.154115,305.145832 C293.184819,305.151895 293.142175,305.479772 293.040682,306.069612 C292.946866,306.660297 292.747292,307.505341 292.446226,308.532913 C291.847505,310.588904 290.711471,313.361491 288.915309,316.116332 C287.110618,318.867793 285.021066,321.028569 283.371599,322.409369 C282.547719,323.102305 281.850917,323.627922 281.344307,323.954108 C280.842814,324.287055 280.557953,324.458599 280.540896,324.434093 C280.493987,324.36987 281.583966,323.608486 283.162644,322.176137 C284.743028,320.749704 286.763497,318.588929 288.542601,315.877185 C290.312324,313.161215 291.477356,310.451162 292.146013,308.439113 C292.819787,306.427065 293.07565,305.129924 293.154115,305.145832" id="Fill-71" fill="#263238"></path>
                    <path d="M277.671557,81.0980447 C289.572623,81.1783238 301.214414,87.8355749 307.236588,98.005671 C313.260469,108.176612 313.448102,121.492804 307.715053,131.825994 C305.760256,135.348134 302.948316,138.684365 299.084776,139.912213 C300.399062,119.703003 292.269424,99.0805661 277.477953,85.104395" id="Fill-72" fill="#FF595E"></path>
                    <path d="M291.600768,84.1502566 C289.833603,80.5098101 291.725288,75.9550267 294.875821,73.3920104 C298.027207,70.828149 302.132964,69.7921259 306.097996,68.8532828 C310.063028,67.9152848 314.173049,66.9409499 317.393518,64.4641279 C316.928699,70.7935022 315.341493,77.3062509 311.206738,82.1534193 C307.071983,87.0005876 299.90951,89.700501 294.005885,87.2371998" id="Fill-73" fill="#FF595E"></path>
                    <path d="M295.696972,88.3205453 C292.98226,89.4520583 289.747292,88.744757 287.318294,87.0952325 C284.888443,85.446553 283.15113,82.9773365 281.72597,80.4244607 C279.974158,77.288505 278.599318,73.9007264 278.132793,70.3464743 C277.666269,66.7930673 278.156674,63.0537507 279.932367,59.9313157 C284.601023,64.8596082 289.743028,69.0003204 292.410832,75.2206841 C293.979275,78.8746513 293.789083,84.7333365 292.10806,88.3374461" id="Fill-74" fill="#FF595E"></path>
                    <path d="M308.919915,108.812391 C308.949765,108.808198 309.031642,109.225649 309.151898,109.987878 C309.217569,110.368147 309.284947,110.835456 309.328443,111.381354 C309.375352,111.927252 309.452111,112.547514 309.465757,113.237914 C309.542516,114.61618 309.518635,116.263169 309.379616,118.084238 C309.215864,119.903616 308.923326,121.894538 308.439744,123.949683 C307.937399,125.999758 307.293475,127.909556 306.612878,129.606403 C305.909254,131.2948 305.181748,132.777006 304.486652,133.972742 C304.160853,134.583708 303.81032,135.10341 303.519488,135.569029 C303.232068,136.037183 302.96,136.424212 302.72887,136.735188 C302.275139,137.361365 302.012452,137.697693 301.987719,137.680792 C301.962985,137.663046 302.177058,137.292917 302.584733,136.640544 C302.791983,136.316892 303.041876,135.918877 303.307122,135.441427 C303.575778,134.965668 303.904989,134.439206 304.211173,133.824014 C304.86533,132.618137 305.556162,131.136777 306.232495,129.45683 C306.884947,127.768434 307.510959,125.876382 308.007335,123.847433 C308.485791,121.815104 308.787719,119.847843 308.97194,118.048746 C309.131429,116.247114 309.187719,114.61618 309.151045,113.248055 C309.158721,112.56188 309.104136,111.944998 309.079403,111.40079 C309.06064,110.855737 309.018849,110.389274 308.980469,110.007314 C308.912239,109.24255 308.889211,108.816648 308.919915,108.812391" id="Fill-75" fill="#263238"></path>
                    <path d="M306.25629,86.1493755 C306.275053,86.1713467 305.943284,86.4341551 305.312154,86.8938587 C304.633262,87.2631426 303.614925,87.8048154 302.231557,88.0752292 C299.486994,88.6946459 295.52452,88.5653543 291.341151,87.4600377 L291.215778,87.427081 L291.187633,87.3011695 C291.131343,87.0485016 291.069083,86.7772427 291.008529,86.5034487 C290.559915,84.3105613 290.454158,82.1480955 290.726226,80.2171716 C290.973561,78.2828675 291.649893,76.6003863 292.518124,75.3961996 C293.35565,74.1573661 294.379104,73.4678108 295.047761,73.0021919 C295.777825,72.6117819 296.182942,72.4115066 296.196588,72.438548 C296.211087,72.4655894 295.832409,72.7174123 295.144989,73.1450042 C294.516418,73.6461149 293.551812,74.3525711 292.777399,75.5711235 C291.973134,76.7558742 291.350533,78.3851177 291.132196,80.2704093 C290.888273,82.1489406 291.003412,84.264929 291.443497,86.4155642 C291.503198,86.6834429 291.5629,86.9496315 291.618337,87.1972292 L291.465672,87.0383611 C295.569723,88.1284669 299.480171,88.3084612 302.168443,87.778619 C303.53049,87.5529924 304.534328,87.0679376 305.227719,86.7502013 C305.869936,86.3437355 306.23838,86.1265594 306.25629,86.1493755" id="Fill-76" fill="#263238"></path>
                    <path d="M309.750374,75.1980369 C309.76307,75.278316 308.502516,75.454085 306.547719,76.0270244 C305.568614,76.3075788 304.429168,76.7233401 303.196759,77.2574074 C301.973731,77.8109108 300.66371,78.4953959 299.361365,79.3319887 C298.066695,80.1812572 296.910192,81.0989743 295.909765,81.9896499 C294.923838,82.8955363 294.084606,83.7659309 293.433859,84.5433707 C292.122985,86.090645 291.458593,87.1655401 291.38951,87.1215978 C291.362217,87.105542 291.510618,86.8275228 291.803156,86.3348625 C292.087164,85.8388221 292.558806,85.154337 293.190789,84.3473207 C293.817655,83.534389 294.644947,82.6285026 295.631727,81.6921947 C296.632154,80.7710975 297.80145,79.8280291 299.117441,78.9643949 C300.441962,78.1134363 301.780981,77.4281062 303.033006,76.8855884 C304.293561,76.3633516 305.461151,75.9729416 306.463284,75.7278791 C307.462004,75.4760562 308.284179,75.3205682 308.857313,75.2605701 C309.429595,75.1912766 309.746013,75.1676154 309.750374,75.1980369" id="Fill-77" fill="#263238"></path>
                    <path d="M295.513689,88.2194781 C295.529041,88.2228583 295.5171,88.3098977 295.480426,88.4729911 C295.453134,88.6403097 295.37467,88.8743867 295.252708,89.1709969 C295.005373,89.759147 294.482559,90.5661633 293.565714,91.2844501 C292.653134,91.9799208 291.305586,92.590042 289.732026,92.511453 C288.156759,92.4582153 286.525203,91.5134569 285.51113,90.0481518 C284.497058,88.5820017 284.196844,86.7330469 284.716247,85.2576013 C285.210064,83.7745504 286.270192,82.7503579 287.253561,82.1579825 C288.261663,81.5698324 289.209211,81.3780076 289.852281,81.3619517 C290.175522,81.3568815 290.424563,81.3687121 290.591727,81.4033589 C290.758891,81.4287102 290.844179,81.4498362 290.842473,81.464202 C290.838209,81.5106794 290.48597,81.4616668 289.865928,81.5326505 C289.248443,81.6002539 288.35548,81.8309508 287.420725,82.421636 C286.506439,83.0165465 285.539275,84.0077823 285.106013,85.3801326 C284.650576,86.7381172 284.935437,88.431584 285.877015,89.798864 C286.824563,91.1619189 288.315394,92.0373837 289.757612,92.1066773 C291.204947,92.2021672 292.486823,91.6655647 293.377228,91.0360074 C294.271045,90.384479 294.810917,89.6442211 295.096631,89.0974781 C295.388316,88.549045 295.468486,88.2068024 295.513689,88.2194781" id="Fill-78" fill="#263238"></path>
                    <path d="M285.174243,88.4307389 C285.132452,88.4729911 284.877441,87.9710354 285.282559,87.3119016 C285.471898,87.0017707 285.830959,86.6831894 286.294072,86.5285465 C286.75548,86.362918 287.288529,86.3333415 287.818166,86.3705234 C289.946951,86.520096 291.494072,87.3423232 291.43693,87.4395031 C291.389168,87.5620344 289.819019,86.949378 287.787463,86.8099459 C286.782772,86.7076956 285.909424,86.9705041 285.540128,87.4902057 C285.143539,87.9811759 285.243326,88.4248236 285.174243,88.4307389" id="Fill-79" fill="#263238"></path>
                    <path d="M279.932026,59.9311467 C280.015608,59.9691736 278.989595,61.1649099 278.630533,63.5453969 C278.433518,64.7225422 278.407932,66.1489753 278.427548,67.7401918 C278.448017,69.3263381 278.519659,71.0738876 278.882985,72.8560839 C279.691514,76.4052658 281.156759,79.4584072 282.524776,81.4104572 C283.217313,82.3940876 283.827122,83.1571617 284.260384,83.6726381 C284.692793,84.1898046 284.962303,84.4466978 284.941834,84.4720491 C284.889808,84.5354273 283.729041,83.5399663 282.269765,81.5921415 C280.803667,79.6367113 279.277015,76.5784996 278.447164,72.9431234 C278.074456,71.1144497 278.016461,69.3390137 278.019019,67.7418819 C278.020725,66.1472852 278.078721,64.6912756 278.320085,63.4921591 C278.546951,62.2896625 278.946951,61.3643401 279.294925,60.777035 C279.646311,60.1888849 279.914115,59.917626 279.932026,59.9311467" id="Fill-80" fill="#263238"></path>
                    <path d="M284.351301,69.9561488 C284.396503,69.9223471 284.876674,70.4564145 285.550448,71.4003278 C286.222516,72.3425511 287.071983,73.7089861 287.815693,75.3162585 C288.560256,76.9243759 289.044691,78.4572844 289.3142,79.581192 C289.58371,80.7067897 289.661322,81.4183161 289.606738,81.4293017 C289.468571,81.4614133 288.888614,78.6651651 287.412281,75.4996329 C285.950448,72.3298755 284.231045,70.0389631 284.351301,69.9561488" id="Fill-81" fill="#263238"></path>
                    <path d="M282.908742,75.2207686 C282.997441,75.1455597 284.433689,76.5855135 286.315991,78.2570092 C288.191471,79.9369552 289.69339,81.3321217 289.607249,81.4293017 C289.531343,81.5146511 287.902345,80.2715924 286.017484,78.5831959 C284.123241,76.8998696 282.809808,75.3018927 282.908742,75.2207686" id="Fill-82" fill="#263238"></path>
                    <path d="M305.229339,95.0470899 C305.232751,95.0513151 305.190107,95.0927223 305.105672,95.166241 C304.986269,95.2676462 304.861748,95.3715865 304.730405,95.4831323 C304.405458,95.7594614 303.909083,96.1287453 303.275394,96.5546472 C302.009723,97.4081409 300.132537,98.4230379 297.905672,99.1506202 C295.676247,99.8731322 293.557697,100.158757 292.027633,100.21453 C291.262601,100.244106 290.641706,100.238191 290.215267,100.206079 C290.041279,100.194249 289.880085,100.183263 289.722303,100.172278 C289.611429,100.162137 289.551727,100.154532 289.551727,100.148616 C289.55258,100.141856 289.611429,100.138476 289.724009,100.136786 C289.881791,100.136786 290.043838,100.137631 290.216119,100.137631 C290.642559,100.148616 291.260896,100.135096 292.021663,100.090308 C293.541493,100.003269 295.638721,99.6998983 297.851087,98.9841466 C300.05919,98.2616346 301.929552,97.273779 303.206311,96.4507068 C303.845117,96.0408608 304.350874,95.6876327 304.687761,95.4290495 C304.82678,95.3276443 304.957271,95.2313094 305.083497,95.1391996 C305.175608,95.0741313 305.225075,95.0420197 305.229339,95.0470899" id="Fill-83" fill="#FAFAFA"></path>
                    <path d="M310.25339,105.273804 C310.257655,105.278029 310.214158,105.319436 310.12887,105.39211 C310.007761,105.491825 309.882388,105.59492 309.749339,105.705621 C309.420981,105.977725 308.922047,106.345319 308.286652,106.771221 C307.019275,107.625559 305.15403,108.657357 302.948486,109.448318 C300.739531,110.235053 298.638038,110.619548 297.112239,110.763205 C296.348913,110.836724 295.728017,110.869681 295.299872,110.867145 C295.126738,110.8663 294.962985,110.8663 294.806055,110.865455 C294.693475,110.86292 294.634627,110.85954 294.634627,110.853625 C294.634627,110.846864 294.693475,110.839259 294.806055,110.829964 C294.962132,110.819823 295.125032,110.809683 295.297313,110.798697 C295.723753,110.780106 296.341237,110.728558 297.098593,110.639829 C298.614158,110.464905 300.694328,110.063509 302.887932,109.283534 C305.078977,108.496799 306.939104,107.491198 308.218422,106.66728 C308.858934,106.256589 309.367249,105.906741 309.707548,105.650693 C309.84742,105.550133 309.979616,105.455488 310.106695,105.364224 C310.199659,105.300845 310.249126,105.269579 310.25339,105.273804" id="Fill-84" fill="#FAFAFA"></path>
                    <path d="M308.858252,120.190424 C308.865075,120.200564 308.735437,120.294364 308.496631,120.454077 C308.259531,120.617171 307.901322,120.831812 307.447591,121.077719 C306.541834,121.570379 305.224989,122.145009 303.694925,122.543869 C302.164009,122.938504 300.732026,123.076247 299.69919,123.085542 C299.181493,123.092302 298.763582,123.077937 298.476162,123.050895 C298.187889,123.027234 298.030107,123.008643 298.030956,122.996812 C298.031812,122.984982 298.191301,122.979912 298.478721,122.982447 C298.766141,122.988362 299.182345,122.983292 299.694925,122.961321 C300.720085,122.919914 302.135011,122.764426 303.650576,122.373171 C305.164435,121.97938 306.475309,121.428412 307.388742,120.967018 C307.846738,120.738012 308.212623,120.540272 308.459957,120.395769 C308.709851,120.254647 308.851429,120.180283 308.858252,120.190424" id="Fill-85" fill="#FAFAFA"></path>
                    <path d="M311.751727,117.908638 C311.761109,117.956805 311.245117,118.094547 310.599488,118.217924 C309.954712,118.3413 309.424222,118.402143 309.41484,118.354821 C309.405458,118.306653 309.92145,118.168066 310.566226,118.045535 C311.211855,117.922158 311.742345,117.86047 311.751727,117.908638" id="Fill-86" fill="#FAFAFA"></path>
                    <path d="M303.28873,135.447427 C303.29467,135.492214 302.422175,135.624886 301.342431,135.544607 C300.261834,135.468553 299.41919,135.210815 299.431983,135.167718 C299.443923,135.117015 300.292537,135.294474 301.355224,135.368838 C302.41791,135.448272 303.283582,135.395034 303.28873,135.447427" id="Fill-87" fill="#FAFAFA"></path>
                    <path d="M287.103198,91.2580003 C287.126226,91.3002524 286.61791,91.623904 285.966311,91.9796673 C285.313859,92.3362755 284.767164,92.5906336 284.742431,92.5483814 C284.719403,92.5052842 285.228571,92.1824776 285.880171,91.8258694 C286.53177,91.4692611 287.080171,91.2157481 287.103198,91.2580003" id="Fill-88" fill="#FAFAFA"></path>
                    <path d="M282.867122,82.3879188 C282.888443,82.4420016 281.638977,82.8129756 280.353689,83.7273124 C279.058166,84.6298187 278.293987,85.6776724 278.249638,85.6388004 C278.23258,85.6269698 278.400597,85.3506406 278.738337,84.9526252 C279.076077,84.5546098 279.596333,84.0458938 280.25049,83.5845001 C280.905501,83.1239515 281.562217,82.8045252 282.052623,82.6194607 C282.543028,82.4343962 282.861151,82.3684828 282.867122,82.3879188" id="Fill-89" fill="#FAFAFA"></path>
                    <path d="M290.550533,92.2119697 C290.492537,92.2035192 290.787633,91.0610207 290.595736,89.6506434 C290.420043,88.237731 289.840085,87.2076233 289.893817,87.1848071 C289.91258,87.1746666 290.079744,87.4163489 290.275053,87.8490111 C290.470362,88.2799832 290.676759,88.9086954 290.771429,89.6278273 C290.864392,90.3469591 290.826013,91.007783 290.747548,91.4734018 C290.670789,91.9407108 290.570149,92.2170399 290.550533,92.2119697" id="Fill-90" fill="#FAFAFA"></path>
                    <path d="M316.938934,64.651474 C316.938934,64.651474 316.639574,65.0342787 316.004179,65.6376396 C315.371343,66.2435356 314.38371,67.0497069 313.054072,67.8871448 C311.725288,68.7237377 310.05194,69.5713161 308.150021,70.3994586 C306.249808,71.2335163 304.122729,72.0574335 301.966652,73.082471 C299.815693,74.1100437 297.847249,75.2846539 296.310362,76.6570042 C294.77177,78.0251293 293.666439,79.5487423 292.988401,80.9413737 C292.312921,82.3399203 292.046823,83.5863592 291.974328,84.4474583 C291.900128,85.3119376 291.961535,85.7936123 291.93339,85.7944573 C291.93339,85.7944573 291.916333,85.6753062 291.903539,85.4462995 C291.880512,85.2164477 291.884776,84.8784304 291.906098,84.441543 C291.958124,83.5719935 292.207164,82.3086537 292.874968,80.888136 C293.54533,79.4735335 294.651514,77.9254142 296.201194,76.536163 C297.748316,75.1426866 299.728699,73.9562458 301.889041,72.9236029 C304.054499,71.8943401 306.184989,71.0754932 308.083497,70.2507309 C309.986269,69.432729 311.657058,68.6003614 312.987548,67.7815144 C314.318891,66.9626675 315.313348,66.1750871 315.958124,65.587782 C316.278806,65.2928619 316.525288,65.05963 316.683923,64.8931564 C316.846823,64.7309081 316.938934,64.651474 316.938934,64.651474" id="Fill-91" fill="#FAFAFA"></path>
                    <path d="M314.632665,74.6810394 C314.637783,74.6844196 314.59855,74.750333 314.519232,74.8720192 C314.410064,75.0351126 314.294072,75.2091915 314.164435,75.4027064 C313.858252,75.8641 313.378081,76.5097131 312.754627,77.2803926 C311.509424,78.8242867 309.604094,80.8253492 307.197271,82.6819094 C304.783625,84.5333992 302.354627,85.8660325 300.53629,86.6772741 C299.627122,87.08543 298.878294,87.3862654 298.350362,87.5654146 C298.129467,87.6414685 297.930746,87.710762 297.743966,87.7749853 C297.604947,87.8206177 297.530746,87.8417437 297.528973,87.8358284 C297.526482,87.8307582 297.596418,87.7978015 297.732878,87.7411836 C297.914542,87.6676648 298.109851,87.5890758 298.326482,87.5011913 C298.845032,87.3026061 299.584478,86.9857149 300.483412,86.5648833 C302.282132,85.7274454 304.687249,84.3846716 307.088102,82.5433223 C309.483838,80.6960576 311.391727,78.7203464 312.657399,77.2018036 C313.29194,76.4429547 313.784904,75.8117074 314.108145,75.3629894 C314.247164,75.1770798 314.372537,75.0089162 314.489382,74.8525832 C314.578934,74.7368123 314.627548,74.6776593 314.632665,74.6810394" id="Fill-92" fill="#FAFAFA"></path>
                    <path d="M279.032416,62.806322 C279.032416,62.806322 280.084094,63.2034924 281.617569,64.1626165 C283.149339,65.1141352 285.120341,66.6969013 286.845714,68.8466915 C288.564264,71.004087 289.668742,73.2662679 290.253817,74.9614248 C290.845714,76.6599618 290.995821,77.7644651 290.995821,77.7644651 C290.990704,77.7661235 290.967676,77.7002101 290.931002,77.5734536 C290.884094,77.4002198 290.834627,77.2168454 290.780043,77.0165701 C290.661493,76.5323603 290.444861,75.8402698 290.136119,75.003677 C289.523753,73.3288011 288.410746,71.0961968 286.706695,68.9565471 C284.994115,66.8236578 283.05467,65.2400467 281.549339,64.2674019 C280.7971,63.7772768 280.167676,63.410528 279.718209,63.1849014 C279.533987,63.0868764 279.36597,62.9973018 279.206482,62.9119524 C279.089638,62.8477291 279.029936,62.8113923 279.032416,62.806322" id="Fill-93" fill="#FAFAFA"></path>
                    <path d="M236.260299,94.5836682 C236.593774,99.0623977 233.608699,103.063678 230.600597,106.42357 C227.592495,109.783462 224.2458,113.285321 223.595053,117.730249 C222.443667,125.606898 230.227036,132.920747 228.621919,140.719652 C227.761365,144.899236 224.307207,148.257438 223.692281,152.479275 C223.096119,156.562524 225.305075,160.559579 228.042814,163.668493 C230.780554,166.777407 233.952409,166.322774 236.373731,169.679286 C238.924691,173.214947 243.031301,176.842718 246.879488,178.93082 C255.602729,183.663907 266.071812,176.815676 270.279915,175.586984" id="Fill-94" fill="#263238"></path>
                    <path d="M302.228486,112.939868 C306.249808,111.205839 306.565373,96.9279873 296.476674,95.2793078 C292.430618,94.6176389 289.060043,92.6605186 285.657058,90.3915774 C282.644691,88.3829095 281.750874,83.2847633 279.200768,80.722592 C272.944904,74.4396951 263.17774,71.8344266 254.584136,74.1574506 C245.990533,76.4804746 238.911642,83.6388364 236.742772,92.19997 C235.276674,97.9842914 236.277953,104.824072 240.879232,108.668174 C246.221663,113.130002 254.14064,112.139612 260.984989,110.751206 C267.829339,109.363644 275.576034,107.993829 281.289467,111.976518 C284.735949,114.378131 286.712068,118.285612 288.817825,121.900707 C290.924435,125.515802 293.569211,129.206951 297.553006,130.566626 C297.553006,130.566626 300.585842,137.629498 298.109936,142.54596 C295.63403,147.461576 301.021663,139.077057 301.021663,139.077057 C301.021663,139.077057 310.844264,121.77226 302.228486,112.939868" id="Fill-95" fill="#263238"></path>
                    <path d="M251.128188,213.145186 C251.072751,203.824359 251.131599,177.649143 251.128188,177.69731 C251.128188,177.69731 236.184904,175.205277 233.129893,155.873222 C231.610917,146.258319 232.133731,130.501642 232.981493,117.622337 C233.744819,106.030878 241.529041,91.8223202 253.186183,93.0704491 L289.572537,102.267055 C293.113689,102.645635 295.773817,105.647229 295.695352,109.175284 L293.480426,198.710157 L251.128188,213.145186 Z" id="Fill-96" fill="#FFBE9D"></path>
                    <path d="M239.174584,128.666884 C239.125117,129.975856 240.202303,131.096383 241.581407,131.172437 C242.957953,131.249336 244.115309,130.25303 244.164776,128.944058 C244.214243,127.635086 243.137058,126.512869 241.761365,126.436815 C240.38226,126.359916 239.224904,127.358757 239.174584,128.666884" id="Fill-97" fill="#263238"></path>
                    <path d="M236.413561,125.827623 C236.722303,126.151275 238.62081,124.766249 241.312495,124.778924 C244.00162,124.753573 245.974328,126.130149 246.266866,125.803962 C246.411002,125.660304 246.09629,125.075534 245.237441,124.453583 C244.391386,123.834166 242.949168,123.22996 241.271557,123.233326 C239.59565,123.23841 238.183284,123.846842 237.371343,124.471329 C236.542345,125.098351 236.260896,125.682276 236.413561,125.827623" id="Fill-98" fill="#263238"></path>
                    <path d="M262.87113,130.077599 C263.180725,130.401251 265.081791,129.016225 267.770917,129.028901 C270.45919,129.003549 272.432751,130.380125 272.725288,130.053938 C272.868571,129.910281 272.557271,129.326356 271.695011,128.703559 C270.849808,128.083297 269.407591,127.479936 267.730832,127.482463 C266.05322,127.488387 264.642559,128.096818 263.829765,128.721305 C263.002473,129.348327 262.719318,129.933097 262.87113,130.077599" id="Fill-99" fill="#263238"></path>
                    <path d="M253.057996,146.140858 C253.071642,145.989596 251.398294,145.699746 248.687846,145.349053 C248.000426,145.278069 247.350533,145.141172 247.235394,144.676398 C247.0742,144.183738 247.364179,143.45024 247.69936,142.658435 C248.349254,141.012291 249.028998,139.285867 249.742857,137.477474 C252.58209,130.100246 254.639232,124.032836 254.339019,123.92298 C254.037953,123.812279 251.492111,129.701386 248.652878,137.078614 C247.969723,138.897992 247.316418,140.632021 246.693817,142.291686 C246.431983,143.064901 245.982516,143.942056 246.331343,144.963713 C246.515565,145.472429 247.019616,145.842558 247.459701,145.961709 C247.899787,146.096071 248.286141,146.104521 248.627292,146.124802 C251.354797,146.27691 253.047761,146.292966 253.057996,146.140858" id="Fill-100" fill="#263238"></path>
                    <path d="M251.128188,177.697057 C251.128188,177.697057 264.248017,178.564071 277.265501,170.850516 C277.045458,170.896993 270.072324,184.285014 251.381493,182.26029 L251.128188,177.697057 Z" id="Fill-101" fill="#EB996E"></path>
                    <path d="M253.834286,153.839879 C253.513603,152.198805 255.461578,151.666427 256.895267,150.784202 C258.328102,149.901977 259.15113,148.729057 260.493561,149.741419 C261.260299,150.319428 261.808699,151.150106 262.152409,152.041627 C262.383539,152.642452 262.529382,153.294826 262.420213,153.929453 C262.288017,154.700133 261.7942,155.365182 261.221066,155.902629 C260.412537,156.664013 259.400171,157.236108 258.299104,157.417792 C257.198891,157.599476 256.011684,157.364554 255.134925,156.680914 C254.259019,155.996429 253.743028,154.84548 253.928955,153.755374" id="Fill-102" fill="#EB996E"></path>
                    <path d="M260.975437,148.002996 C260.53791,147.976799 260.52597,150.871918 258.020213,152.921148 C255.520426,154.977138 252.404861,154.645036 252.381834,155.049812 C252.340896,155.231496 253.074371,155.613456 254.387804,155.651483 C255.678209,155.698805 257.561365,155.292339 259.09484,154.038295 C260.624051,152.781716 261.283326,151.101769 261.384819,149.914484 C261.499957,148.705227 261.175011,147.986095 260.975437,148.002996" id="Fill-103" fill="#263238"></path>
                    <path d="M262.471386,124.119368 C262.735778,124.844415 265.424051,124.507243 268.580554,124.891738 C271.745586,125.212009 274.289723,126.133951 274.711045,125.484113 C274.898678,125.173982 274.456034,124.490342 273.428316,123.786421 C272.409126,123.083345 270.781834,122.413226 268.885885,122.200275 C266.991642,121.989859 265.255181,122.284779 264.102942,122.746173 C262.943028,123.205876 262.357953,123.77459 262.471386,124.119368" id="Fill-104" fill="#263238"></path>
                    <path d="M236.787548,116.602708 C237.260043,117.209449 239.115053,116.584962 241.346183,116.559611 C243.574755,116.458205 245.463028,116.976217 245.899701,116.34328 C246.089893,116.036529 245.793945,115.428943 244.970064,114.853468 C244.158977,114.280529 242.799488,113.810685 241.266866,113.852937 C239.735096,113.897724 238.405458,114.443622 237.628486,115.062194 C236.840426,115.683301 236.580299,116.306098 236.787548,116.602708" id="Fill-105" fill="#263238"></path>
                    <path d="M297.827463,166.919881 C292.46371,167.991396 291.985245,165.286413 287.977569,161.595264 C283.969893,157.904115 281.899957,152.24993 282.587377,146.871229 C283.193774,142.125466 285.77629,137.296044 284.115736,132.803793 C281.920426,126.863984 273.517015,125.037001 271.286738,119.109867 C269.990362,115.66547 271.154542,111.635459 269.685032,108.259511 C268.304222,105.084683 264.933646,103.256855 261.65177,102.081399 C258.370746,100.905944 254.852623,100.094703 252.097825,97.9727988 C249.343028,95.8508951 247.62533,91.84708 249.402729,88.8725276 C263.952836,90.5997961 278.29484,94.052643 292.022772,99.1330433 C295.206567,100.311034 298.550704,101.726481 300.433006,104.52949 C302.423625,107.496437 302.328102,111.328708 302.160938,114.887185 C301.343028,132.24015 300.52597,149.593114 299.708913,166.945233" id="Fill-106" fill="#263238"></path>
                    <path d="M310.256716,160.434941 C310.268657,160.442794 310.341151,160.361669 310.469936,160.193506 C310.590192,160.020272 310.807676,159.78366 311.008102,159.421136 C311.448188,158.720595 311.978678,157.592463 312.29339,156.041808 C312.605544,154.499604 312.634542,152.500232 311.980384,150.334386 C311.370576,148.174455 309.850746,145.853966 307.440512,144.285566 C305.126652,142.668998 302.113433,141.5434 300.198721,138.971088 C299.24435,137.714509 298.839232,136.084421 299.140299,134.432361 C299.401279,132.774386 300.166311,131.148523 300.836674,129.417874 C302.328358,125.954887 302.342857,121.629955 300.585928,117.879653 C299.699787,116.015487 298.387207,114.277233 296.628571,113.007978 C294.881876,111.699006 292.748827,111.024662 290.645629,110.550592 C288.533049,110.073143 286.426439,109.795969 284.470789,109.211199 C282.520256,108.633189 280.654158,107.76702 279.298081,106.40819 C277.907889,105.067106 277.319403,103.208856 277.055011,101.33793 C276.788913,99.4686945 276.647335,97.5293201 276.136461,95.7192374 C275.182942,92.0948467 273.323667,88.8836821 270.872495,86.5767139 C268.422175,84.25538 265.420043,82.9227467 262.585928,82.5036052 C259.741578,82.0641827 257.061834,82.5864195 255.046482,83.6342732 C253.008955,84.6618458 251.594883,86.0865888 250.684861,87.3752798 C249.778252,88.6808717 249.356077,89.8546369 249.159062,90.6548929 C248.95693,91.457684 248.969561,91.8979516 248.969561,91.8979516 C249.095949,91.9503443 249.121535,90.0853337 250.956077,87.5687948 C251.879744,86.3468622 253.281876,85.0057784 255.260554,84.060175 C257.214499,83.0942905 259.772281,82.6405022 262.492111,83.0968256 C265.199147,83.5345581 268.06226,84.8452202 270.379531,87.0845849 C272.704478,89.3138092 274.472495,92.4108929 275.372281,95.9161325 C275.855011,97.6670622 275.978678,99.5134818 276.245629,101.457926 C276.498934,103.371949 277.148827,105.492163 278.700213,106.992115 C280.203838,108.503052 282.197015,109.414854 284.22516,110.02075 C286.274627,110.633407 288.387207,110.909736 290.455437,111.378735 C292.51258,111.841818 294.517697,112.485741 296.123667,113.689083 C297.753518,114.860313 298.985928,116.479416 299.82516,118.231191 C301.484009,121.773612 301.506183,125.812919 300.098081,129.139855 C299.454158,130.841772 298.670362,132.512423 298.394883,134.31997 C298.069083,136.118222 298.558635,138.0314 299.623881,139.38516 C301.751812,142.157747 304.853731,143.236867 307.09936,144.782451 C309.434542,146.262122 310.881023,148.403462 311.522388,150.477198 C312.193603,152.543329 312.21919,154.478478 311.964179,155.984345 C311.430277,159.042557 310.128785,160.38026 310.256716,160.434941" id="Fill-107" fill="#455A64"></path>
                    <path d="M284.87855,141.23065 C280.461493,151.301031 279.642729,162.879814 282.599659,173.462291 C283.482388,176.623598 284.702004,179.901521 283.947207,183.095785 C283.131002,186.554547 280.213305,189.05503 278.08452,191.912121 C274.419701,196.830273 272.99113,203.322741 274.258507,209.305648 C275.524179,215.288554 279.46533,220.663875 284.81629,223.708566 C285.37919,220.530358 288.363412,218.363667 291.306695,216.982021 C294.249126,215.59953 297.502004,214.575338 299.745928,212.237103 C301.989851,209.899713 302.626098,205.612808 300.01629,203.681885 C307.525032,201.73913 311.780043,192.901667 310.198806,185.373176 C308.619275,177.845531 302.440171,171.898116 295.412452,168.637094" id="Fill-108" fill="#263238"></path>
                    <path d="M292.885117,216.275311 C291.541834,217.004584 290.239488,217.656957 290.07403,219.165359 C289.879574,220.935725 291.592154,224.041259 292.207932,225.714445 C293.411343,228.986453 292.504733,232.920129 289.986183,235.349629 C287.46678,237.779128 283.473603,238.572624 280.20452,237.292383 C282.607079,237.474912 284.646311,235.151888 284.860384,232.773092 C285.074456,230.395985 283.910277,228.100002 282.477441,226.180064 C281.045458,224.25928 279.311557,222.552293 278.096205,220.489542 C275.624563,216.292212 271.952921,204.869762 274.77936,198.473629" id="Fill-109" fill="#263238"></path>
                    <path d="M299.711471,203.97596 C299.70209,203.963284 299.862431,203.830612 300.172026,203.59062 C300.485032,203.353163 300.938763,202.992329 301.511045,202.515725 C302.647932,201.559981 304.261578,200.112422 305.895693,198.023475 C307.519574,195.946358 309.181834,193.190672 310.050064,189.812189 C310.902942,186.461592 310.965203,182.461157 309.50081,178.71508 C308.770746,176.847535 307.682473,175.193785 306.414243,173.776647 C305.159659,172.345989 303.791642,171.09955 302.50806,169.888603 C301.223625,168.677656 300.012537,167.502201 299.008699,166.279423 C298.00145,165.05411 297.241535,163.77725 296.714456,162.540107 C295.622772,160.068355 295.579275,157.777443 295.962217,156.329883 C296.155821,155.603146 296.399744,155.068234 296.600171,154.729371 C296.804009,154.390509 296.916588,154.218965 296.929382,154.226328 C296.98823,154.254457 296.467122,154.933027 296.131087,156.368755 C295.809552,157.793498 295.898252,160.012582 297.001876,162.415885 C297.534925,163.618382 298.296546,164.85975 299.292708,166.047036 C300.290576,167.238547 301.499957,168.394567 302.78951,169.593683 C304.077356,170.794489 305.460725,172.041773 306.742601,173.493558 C308.036418,174.929286 309.165629,176.636274 309.914456,178.556212 C311.419787,182.40792 311.338763,186.498774 310.446652,189.912749 C309.537484,193.358836 307.817228,196.138183 306.142175,198.21699 C304.456034,200.305092 302.797186,201.728144 301.620213,202.649242 C301.028316,203.1081 300.555821,203.446963 300.225757,203.662449 C299.896546,203.88047 299.72,203.988635 299.711471,203.97596" id="Fill-110" fill="#455A64"></path>
                    <path d="M54.5976119,304.903368 C56.7545416,307.57962 60.5404691,306.41346 62.2146695,304.593237 C63.8897228,302.773014 64.4858849,300.248869 65.0214925,297.843876 C66.246226,292.35025 67.4666951,286.589589 65.9519829,281.166947 C65.4999574,279.545309 64.7758635,277.945642 63.5332196,276.798918 C62.2905757,275.653039 60.4526226,275.039538 58.8415352,275.570225 C56.9344989,276.198937 55.8487846,278.156057 55.0922814,279.999942 C52.8662687,285.42005 51.8803412,291.337043 52.2317271,297.179672 C52.3954797,299.908317 52.9020896,302.748507 54.5976119,304.903368" id="Fill-111" fill="#E8505B"></path>
                    <path d="M54.5976119,304.903368 C56.7545416,307.57962 60.5404691,306.41346 62.2146695,304.593237 C63.8897228,302.773014 64.4858849,300.248869 65.0214925,297.843876 C66.246226,292.35025 67.4666951,286.589589 65.9519829,281.166947 C65.4999574,279.545309 64.7758635,277.945642 63.5332196,276.798918 C62.2905757,275.653039 60.4526226,275.039538 58.8415352,275.570225 C56.9344989,276.198937 55.8487846,278.156057 55.0922814,279.999942 C52.8662687,285.42005 51.8803412,291.337043 52.2317271,297.179672 C52.3954797,299.908317 52.9020896,302.748507 54.5976119,304.903368" id="Fill-112" fill="#FF595E"></path>
                    <path d="M62.9111301,318.619604 C66.041194,316.764734 69.838209,316.31179 73.4672068,316.676004 C75.4177399,316.872054 77.4655011,317.318237 78.8701919,318.671996 C80.2740299,320.026601 80.6834115,322.538914 79.2548401,323.867322 C78.4036674,324.658283 77.1593177,324.847573 75.9942857,324.905881 C73.1797868,325.049538 70.0284009,324.753773 67.8885288,326.569771 C66.6672068,327.606639 65.914968,329.249403 64.413049,329.815582 C62.9426866,330.369086 61.1951386,329.597561 60.314968,328.30718 C59.4347974,327.015954 59.3026013,325.341078 59.5763753,323.807324 C59.5763753,323.807324 59.7580384,320.489684 62.9111301,318.619604" id="Fill-113" fill="#FF595E"></path>
                    <path d="M49.4199574,309.259735 C51.4080171,306.599539 51.5811514,302.889799 50.4246482,299.784265 C49.2672921,296.679575 46.9363753,294.122474 44.3086567,292.07916 C41.2272068,289.684307 37.6698507,287.89366 33.9001279,286.839046 C32.4169723,286.423285 30.861322,286.119914 29.3389339,286.359907 C27.8165458,286.600744 26.3240085,287.472829 25.6954371,288.866305 C24.7657996,290.929056 25.9325373,293.285882 27.1530064,295.193144 C29.3039659,298.551346 31.7210235,301.74223 34.3760341,304.726923 C36.5124947,307.127691 38.9338166,309.476066 42.0169723,310.42843 C45.1001279,311.381639 48.2191045,311.052072 49.6843497,308.883691" id="Fill-114" fill="#FF595E"></path>
                    <path d="M57.1462687,347.146406 C57.1829424,347.146406 57.2153518,346.689238 57.2443497,345.862785 C57.2767591,344.931548 57.3168443,343.762008 57.3646055,342.370222 C57.4353945,340.898156 57.5402985,339.146381 57.8294243,337.228133 C58.1185501,335.31411 58.6268657,333.226853 59.3159915,331.100724 C60.034968,328.984736 60.9526652,327.044516 62.0682303,325.469356 C63.1752665,323.887435 64.5049041,322.709444 65.7799574,321.998763 C67.0498934,321.276251 68.2089552,320.941614 69.0140725,320.775985 C69.8277186,320.641623 70.2823028,320.547823 70.2806018,320.512332 C70.2780384,320.475995 69.8183369,320.498811 68.9782516,320.57402 C68.147548,320.68134 66.9373134,320.966965 65.5957356,321.674266 C64.2481876,322.370582 62.834968,323.570543 61.6707889,325.187111 C60.4963753,326.796919 59.54371,328.78108 58.8119403,330.934251 C58.1108742,333.099251 57.6127932,335.205944 57.3449893,337.159685 C57.0788913,339.110044 57.0123667,340.87872 56.989339,342.359236 C56.9714286,343.840597 57.0055437,345.037178 57.0379531,345.86363 C57.0720682,346.690083 57.1104478,347.146406 57.1462687,347.146406" id="Fill-115" fill="#263238"></path>
                    <path d="M57.2183369,344.460278 C57.2362473,344.457732 57.2353945,344.254077 57.2149254,343.867047 C57.1859275,343.423399 57.1484009,342.864825 57.1031983,342.179495 C57.0059701,340.715035 56.8720682,338.594822 56.7850746,335.971807 C56.5837953,330.727468 56.5795309,323.471082 56.9539446,315.471902 C57.3343284,307.471032 58.0533049,300.249292 58.7970149,295.053121 C58.9684435,293.751754 59.1492537,292.578834 59.3249467,291.552106 C59.4886994,290.521998 59.6285714,289.633858 59.771855,288.914726 C59.891258,288.237846 59.9884861,287.686033 60.0652452,287.249146 C60.1275053,286.866341 60.150533,286.663531 60.1326226,286.660083 C60.1147122,286.655925 60.0567164,286.850285 59.961194,287.22633 C59.8579957,287.658992 59.7283582,288.20489 59.5688699,288.875009 C59.3940299,289.589916 59.2251599,290.473831 59.0324094,291.500559 C58.8285714,292.526441 58.621322,293.698516 58.4260128,294.999038 C57.5850746,300.192674 56.8046908,307.42878 56.4226013,315.447396 C56.0481876,323.463476 56.1121535,330.736764 56.410661,335.988708 C56.5454158,338.615103 56.7373134,340.736161 56.8976546,342.197241 C56.9837953,342.880881 57.0528785,343.43692 57.1091684,343.878877 C57.1628998,344.262527 57.2004264,344.461957 57.2183369,344.460278" id="Fill-116" fill="#263238"></path>
                    <path d="M56.3654584,330.477434 C56.4021322,330.473195 56.3560768,329.847018 56.2409382,328.713815 C56.1036247,327.584837 55.8426439,325.956439 55.3923241,323.970587 C54.9240938,321.99065 54.2963753,319.64312 53.3820896,317.10799 C52.5044776,314.560185 51.3471215,311.823089 49.9211087,309.053882 C47.1211087,303.478287 43.51258,299.002092 40.4481876,296.281053 C39.7240938,295.554316 38.9360341,295.044755 38.2997868,294.538574 C37.9722814,294.297736 37.680597,294.053519 37.3872068,293.865919 C37.0929638,293.690995 36.8191898,293.527902 36.565032,293.377484 C35.5765458,292.793559 35.0247335,292.488499 35.006823,292.519765 C34.9283582,292.639761 37.2183369,293.789865 40.1940299,296.554847 C43.1569296,299.314758 46.669936,303.764756 49.4486141,309.29303 C50.8618337,312.03773 52.024307,314.748629 52.9206823,317.269393 C53.8537313,319.779172 54.515565,322.099661 55.0272921,324.056781 C55.5211087,326.020662 55.8366738,327.628779 56.0362473,328.743391 C56.2136461,329.861384 56.3296375,330.4808 56.3654584,330.477434" id="Fill-117" fill="#263238"></path>
                    <path d="M186.490576,137.136668 C184.917868,131.615156 177.675224,132.150913 177.675224,132.150913 L177.873945,135.991635 C182.060725,135.275038 184.662857,140.136572 184.662857,140.136572 L186.490576,137.136668 Z" id="Fill-118" fill="#FF595E"></path>
                    <path d="M115.231557,72.9013782 C111.321962,73.3120693 110.854584,78.1761385 110.854584,78.1761385 L113.471215,78.4837343 C113.466951,75.6257978 117.049041,74.457103 117.049041,74.457103 L115.231557,72.9013782 Z" id="Fill-119" fill="#FF595E"></path>
                    <path d="M151.635906,21.3731731 C154.020554,27.3941066 162.085373,25.9938698 162.085373,25.9938698 L161.431215,21.7078102 C156.814584,22.9728401 153.349339,17.8054003 153.349339,17.8054003 L151.635906,21.3731731 Z" id="Fill-120" fill="#FF595E"></path>
                    <path d="M60.6893817,123.085373 C56.7797868,123.496064 56.3124094,128.360133 56.3124094,128.360133 L58.9290405,128.667729 C58.9247761,125.809793 62.5060128,124.641098 62.5060128,124.641098 L60.6893817,123.085373 Z" id="Fill-121" fill="#FF595E"></path>
                    <path d="M76.7978678,40.6123584 C77.3658849,36.7572708 72.7270789,35.1026761 72.7270789,35.1026761 L71.7761194,37.5372458 C74.571855,38.2428569 74.8260128,41.9703429 74.8260128,41.9703429 L76.7978678,40.6123584 Z" id="Fill-122" fill="#FF595E"></path>
                    <path d="M9.95769723,99.7740086 C9.25492537,105.817758 17.3359488,107.281373 17.3359488,107.281373 L18.7935181,103.326571 C13.9457569,102.892218 13.2455437,97.2346535 13.2455437,97.2346535 L9.95769723,99.7740086 Z" id="Fill-123" fill="#FF595E"></path>
                    <path d="M202.006055,70.6089448 C205.931855,70.8303461 207.187292,66.1065541 207.187292,66.1065541 L204.655949,65.382352 C204.191983,68.2031065 200.467463,68.7819612 200.467463,68.7819612 L202.006055,70.6089448 Z" id="Fill-124" fill="#FF595E"></path>
                </g>
            </g>
        </g>
    </g>
</svg>